<?xml version="1.0" encoding="UTF-8" standalone="no"?>
<svg viewBox="0 0 312.20001 312.20001" version="1.1" width="312.20001" height="312.20001">
   <defs id="defs270" />
   <g id="container">
      <g id="style-5">
         <circle fill="#3cc2d9" cx="156.10001" cy="156.10001" r="156.10001" id="circle10" />
         <g id="g30">
            <circle fill="#ffffff" cx="156.80002" cy="156.80002" r="86.300003" id="circle13" />
            <circle fill="#eceff0" cx="156.80002" cy="156.80002" r="62.400002" id="circle14" />
            <circle fill="#bcc1c6" cx="156.80002" cy="82.400002" r="6.5" id="circle15" />
            <circle fill="#bcc1c6" cx="156.80002" cy="230.89999" r="6.5" id="circle16" />
            <circle fill="#bcc1c6" cx="230.99998" cy="156.7" r="6.5" id="circle17" />
            <g id="g27">
               <g id="g26">
                  <g id="g21">
                     <g id="g17">
                        <polygon fill="#ffc50b" points="168.9,156.8 144.7,156.8 156.9,118.6 " id="polygon17" />
                     </g>
                     <g id="g18">
                        <polygon fill="#ffc50b" points="144.7,156.8 168.9,156.8 156.7,195 " id="polygon18" />
                     </g>
                     <g id="g19">
                        <polygon fill="#ffc50b" points="156.8,168.9 156.8,144.7 195,156.9 " id="polygon19" />
                     </g>
                     <g id="g20">
                        <polygon fill="#ffc50b" points="156.8,144.7 156.8,168.9 118.6,156.7 " id="polygon20" />
                     </g>
                  </g>
                  <g id="g22">
                     <polygon fill="#c4c6c6" points="151.8,151.6 184,129.8 162.2,162 " id="polygon21" />
                  </g>
                  <g id="g23">
                     <polygon fill="#c4c6c6" points="151.8,151.6 162.2,162 129.9,183.8 " id="polygon22" />
                  </g>
                  <g id="g24">
                     <polygon fill="#ffc50b" points="151.8,162 162.2,151.6 183.9,183.8 " id="polygon23" />
                  </g>
                  <g id="g25">
                     <polygon fill="#ffc50b" points="151.8,162 130,129.7 162.2,151.6 " id="polygon24" />
                  </g>
               </g>
            </g>
            <circle fill="#bcc1c6" cx="82.499977" cy="156.7" r="6.5" id="circle27" />
            <g id="g29">
               <g id="g28">
                  <path fill="#dc1f27"
                     d="m 172.247,155.149 -30.895,0.207 12.886,-47.494 c 0.936,-3.396 4.201,-3.395 5.109,0.021 z"
                     id="path27" />
                  <path fill="#153359"
                     d="m 141.288,155.28 30.959,-0.131 -12.886,47.494 c -0.936,3.397 -4.201,3.395 -5.109,-0.021 z"
                     id="path28" />
               </g>
               <circle fill="#ffffff" cx="156.60001" cy="155.49998" r="11.2" id="circle28" />
            </g>
         </g>
         <g id="g37">
            <g id="g34">
               <g id="g33">
                  <g id="g32">
                     <g id="g31">
                        <path fill="#ffc50b"
                           d="m 156.4,34.2 c -67.9,0 -123,55.1 -123,123 0,67.9 55.1,123 123,123 67.9,0 123,-55.1 123,-123 0,-67.9 -55.1,-123 -123,-123 z m 0,236.1 C 93.9,270.3 43.3,219.6 43.3,157.2 43.3,94.8 93.9,44 156.4,44 c 62.5,0 113.1,50.7 113.1,113.1 0,62.4 -50.7,113.2 -113.1,113.2 z"
                           id="path30" />
                     </g>
                  </g>
               </g>
            </g>
            <path fill="#153359"
               d="m 156.5,34.1 c -8.3,0 -16.6,1.1 -16.6,1.1 l 16.5,27.6 16.5,-27.6 c -0.1,0 -8.2,-1.1 -16.4,-1.1 z"
               id="path34" />
            <path fill="#153359"
               d="m 156.3,280.7 c 8.3,0 16.6,-1.1 16.6,-1.1 L 156.4,252 139.9,279.6 c 0,0 8.1,1.1 16.4,1.1 z"
               id="path35" />
            <path fill="#153359"
               d="m 279.6,157.5 c 0,-8.3 -1.1,-16.6 -1.1,-16.6 l -27.6,16.5 27.6,16.5 c 0,0 1.1,-8.2 1.1,-16.4 z"
               id="path36" />
            <path fill="#153359"
               d="m 33.1,157.3 c 0,8.3 1.1,16.6 1.1,16.6 L 61.8,157.4 34.2,140.9 c 0,0 -1.1,8.2 -1.1,16.4 z"
               id="path37" />
         </g>
      </g>
      <g id="style-4">
         <circle fill="#153359" cx="156.09999" cy="156.10001" r="156.10001" id="circle109" />
         <g id="g126">
            <path fill="#dc1f27"
               d="m 164.7,52.3 -8.6,14.4 -8.6,-14.4 c -48.5,4.1 -87,42.8 -91,91.3 l 14.2,8.5 -14.2,8.5 c 4.2,48.4 42.8,86.9 91.2,90.9 l 8.4,-14 8.4,14 c 48.4,-4 87.1,-42.5 91.2,-90.9 l -14.2,-8.5 14.2,-8.5 c -3.9,-48.5 -42.5,-87.2 -91,-91.3 z"
               id="path109" />
            <path fill="#eceff0"
               d="M 156.1,8.8 C 74.7,8.8 8.8,74.8 8.8,156.1 c 0,81.3 66,147.3 147.3,147.3 81.3,0 147.3,-66 147.3,-147.3 C 303.4,74.8 237.5,8.8 156.1,8.8 Z m 14.6,253.2 0.3,0.4 c 0,0 -7.5,1 -15,1 -7.4,0 -14.8,-1 -14.8,-1 l 0.3,-0.4 C 92,255.5 52.7,216.3 46.1,166.8 l -0.3,0.2 c 0,0 -1,-7.5 -1,-15 0,-7.4 1,-14.8 1,-14.8 l 0.2,0.1 C 52.5,87.7 91.7,48.4 141.2,41.8 v 0 c 0,0 7.5,-1 15,-1 7.4,0 14.8,1 14.8,1 v 0 c 49.6,6.6 88.8,45.9 95.2,95.5 l 0.2,-0.1 c 0,0 1,7.5 1,15 0,7.4 -1,14.8 -1,14.8 l -0.3,-0.2 c -6.6,49.6 -45.8,88.7 -95.4,95.2 z"
               id="path110" />
            <path fill="#3cc2d9"
               d="m 56.5,160.6 -10.4,6.2 c 6.7,49.5 45.9,88.6 95.4,95.2 l 6.2,-10.5 c -48.4,-4 -87,-42.5 -91.2,-90.9 z"
               id="path111" />
            <path fill="#3cc2d9"
               d="m 255.8,143.6 10.5,-6.2 C 259.8,87.8 220.6,48.5 171.1,41.9 l -6.2,10.4 c 48.3,4.1 86.9,42.8 90.9,91.3 z"
               id="path112" />
            <path fill="#3cc2d9"
               d="M 147.5,52.3 141.3,41.9 C 91.7,48.5 52.5,87.8 46.1,137.4 l 10.5,6.2 C 60.5,95.1 99,56.4 147.5,52.3 Z"
               id="path113" />
            <path fill="#3cc2d9"
               d="m 164.5,251.6 6.2,10.5 c 49.5,-6.5 88.8,-45.7 95.4,-95.2 l -10.4,-6.2 c -4.1,48.3 -42.8,86.8 -91.2,90.9 z"
               id="path114" />
            <path fill="#153359" d="m 164.7,52.3 c -2.8,-0.2 -5.7,-0.4 -8.6,-0.4 -2.9,0 -5.8,0.2 -8.6,0.4 l 8.6,14.4 z"
               id="path115" />
            <path fill="#153359"
               d="m 171,41.9 v 0 c 0,0 -7.4,-1.1 -14.8,-1.1 -7.5,0 -15,1 -15,1 v 0 c 4.9,-0.7 9.8,-1 14.9,-1 5.1,0 10,0.4 14.9,1.1 z"
               id="path116" />
            <path fill="#153359"
               d="m 156.1,51.9 c 2.9,0 5.8,0.2 8.6,0.4 l 6.2,-10.4 c -4.9,-0.7 -9.8,-1 -14.9,-1 -5,0 -10,0.4 -14.9,1 l 6.2,10.4 c 3,-0.2 5.9,-0.4 8.8,-0.4 z"
               id="path117" />
            <path fill="#153359"
               d="m 141.5,262 -0.3,0.4 c 0,0 7.4,1 14.8,1 7.5,0 15,-1 15,-1 l -0.3,-0.4 c -4.8,0.6 -9.7,1 -14.6,1 -4.9,0 -9.8,-0.4 -14.6,-1 z"
               id="path118" />
            <path fill="#153359" d="m 147.8,251.6 c 2.8,0.2 5.6,0.4 8.4,0.4 2.8,0 5.6,-0.1 8.4,-0.4 l -8.4,-14 z"
               id="path119" />
            <path fill="#153359"
               d="m 156.1,251.9 c -2.8,0 -5.6,-0.1 -8.4,-0.4 l -6.2,10.5 c 4.8,0.6 9.7,1 14.6,1 5,0 9.8,-0.4 14.6,-1 l -6.2,-10.5 c -2.8,0.3 -5.6,0.4 -8.4,0.4 z"
               id="path120" />
            <path fill="#153359"
               d="m 267.5,152.2 c 0,-7.5 -1,-15 -1,-15 l -0.2,0.1 c 0.6,4.8 1,9.6 1,14.5 0,5.1 -0.4,10 -1,14.9 l 0.3,0.2 c -0.2,0.1 0.9,-7.3 0.9,-14.7 z"
               id="path121" />
            <path fill="#153359" d="m 255.7,160.6 c 0.2,-2.9 0.4,-5.8 0.4,-8.7 0,-2.8 -0.1,-5.6 -0.4,-8.3 l -14.2,8.5 z"
               id="path122" />
            <path fill="#153359"
               d="m 266.2,137.4 -10.5,6.2 c 0.2,2.7 0.4,5.5 0.4,8.3 0,2.9 -0.2,5.8 -0.4,8.7 l 10.4,6.2 c 0.7,-4.9 1,-9.9 1,-14.9 0.1,-4.9 -0.2,-9.8 -0.9,-14.5 z"
               id="path123" />
            <path fill="#153359" d="m 56.5,143.6 c -0.2,2.7 -0.4,5.5 -0.4,8.3 0,2.9 0.2,5.8 0.4,8.7 l 14.2,-8.5 z"
               id="path124" />
            <path fill="#153359"
               d="m 46,137.4 -0.2,-0.1 c 0,0 -1,7.4 -1,14.8 0,7.5 1,15 1,15 l 0.3,-0.2 c -0.7,-4.9 -1,-9.9 -1,-14.9 -0.1,-5 0.3,-9.9 0.9,-14.6 z"
               id="path125" />
            <path fill="#153359"
               d="m 56.1,151.9 c 0,-2.8 0.1,-5.6 0.4,-8.3 L 46,137.4 c -0.6,4.8 -1,9.6 -1,14.5 0,5.1 0.4,10 1,14.9 l 10.4,-6.2 c -0.1,-2.8 -0.3,-5.7 -0.3,-8.7 z"
               id="path126" />
         </g>
         <polygon fill="#c40816"
            points="75.5,152.5 135.4,171.5 156.3,233.3 156.3,233.3 156.4,233.3 156.4,233.3 156.4,233.3 177.3,171.5 237.2,152.4 237.3,152.4 237.2,152.4 237.3,152.4 237.2,152.4 177.4,133.4 156.4,71.6 156.4,71.5 156.4,71.6 156.3,71.5 156.3,71.6 135.3,133.4 75.5,152.4 75.4,152.4 75.5,152.4 75.4,152.5 "
            id="polygon126" />
         <g id="g129">
            <g id="g128">
               <path fill="#3cc2d9"
                  d="m 132.97,152.166 46.374,-0.273 -19.208,71.075 c -1.365,5.062 -6.333,5.054 -7.733,-0.038 z"
                  id="path127" />
               <path fill="#153359"
                  d="m 179.332,152.034 -46.375,0.273 19.208,-71.075 c 1.366,-5.0621 6.334,-5.0534 7.734,0.0378 z"
                  id="path128" />
            </g>
            <circle fill="#ffc50b" cx="156.09128" cy="151.56255" r="16.699999" id="circle128" />
         </g>
         <g id="g135">
            <g id="g134">
               <g id="g130">
                  <path fill="#153359"
                     d="M 148.2,32.2 V 15.7 h 4.3 l 3.4,6 c 1,1.7 2,3.8 2.7,5.6 h 0.1 c -0.2,-2.2 -0.3,-4.4 -0.3,-6.9 v -4.8 h 3.4 v 16.5 h -3.9 l -3.5,-6.4 c -1,-1.8 -2.1,-3.9 -2.9,-5.8 h -0.1 c 0.1,2.2 0.1,4.5 0.1,7.2 v 5 h -3.3 z"
                     id="path129" />
               </g>
               <g id="g131">
                  <path fill="#153359"
                     d="m 150.1,284.7 c 1,0.5 2.5,1 4.1,1 1.7,0 2.6,-0.7 2.6,-1.8 0,-1 -0.8,-1.6 -2.8,-2.3 -2.7,-1 -4.5,-2.5 -4.5,-4.9 0,-2.8 2.3,-5 6.2,-5 1.9,0 3.2,0.4 4.2,0.8 l -0.8,3 c -0.7,-0.3 -1.8,-0.8 -3.4,-0.8 -1.6,0 -2.4,0.7 -2.4,1.6 0,1.1 0.9,1.5 3.1,2.3 2.9,1.1 4.3,2.6 4.3,4.9 0,2.8 -2.1,5.1 -6.6,5.1 -1.9,0 -3.7,-0.5 -4.7,-1 z"
                     id="path130" />
               </g>
               <g id="g132">
                  <path fill="#153359"
                     d="m 22.1,160.2 -3.9,-16.5 h 4 l 1.2,6.8 c 0.4,2 0.7,4.1 1,5.7 v 0 c 0.3,-1.8 0.7,-3.8 1.1,-5.8 l 1.4,-6.7 h 4 l 1.3,6.9 c 0.4,1.9 0.6,3.7 0.9,5.5 v 0 c 0.2,-1.8 0.6,-3.8 1,-5.7 l 1.3,-6.7 h 3.8 l -4.3,16.5 h -4 l -1.4,-7.1 c -0.3,-1.7 -0.6,-3.2 -0.8,-5.1 v 0 c -0.3,1.9 -0.6,3.4 -1,5.1 l -1.6,7.1 z"
                     id="path131" />
               </g>
               <g id="g133">
                  <path fill="#153359"
                     d="m 284.4,153.2 h -6.1 v 3.9 h 6.8 v 3.1 h -10.5 v -16.5 h 10.2 v 3.1 h -6.4 v 3.4 h 6.1 v 3 z"
                     id="path132" />
               </g>
            </g>
         </g>
      </g>
      <g id="style-3">
         <circle fill="#153359" cx="156.09999" cy="156.10001" r="156.10001" id="circle135" />
         <circle fill="#ffffff" cx="156.09999" cy="156.10001" r="80.400002" id="circle136" />
         <g id="g140">
            <g id="g136">
               <path fill="#ffffff"
                  d="M 146.9,45.5 V 23.1 h 5.9 l 4.6,8.2 c 1.3,2.4 2.7,5.1 3.7,7.7 h 0.1 c -0.3,-3 -0.4,-6 -0.4,-9.3 v -6.5 h 4.6 v 22.4 h -5.3 L 155.3,37 c -1.3,-2.4 -2.8,-5.3 -3.9,-7.9 h -0.1 c 0.1,3 0.2,6.1 0.2,9.8 v 6.7 h -4.6 z"
                  id="path136" />
            </g>
            <g id="g137">
               <path fill="#ffffff"
                  d="m 149.5,283.6 c 1.4,0.7 3.5,1.4 5.6,1.4 2.3,0 3.6,-1 3.6,-2.4 0,-1.4 -1.1,-2.2 -3.8,-3.2 -3.7,-1.3 -6.1,-3.4 -6.1,-6.6 0,-3.8 3.2,-6.7 8.5,-6.7 2.5,0 4.4,0.5 5.7,1.1 l -1.1,4.1 c -0.9,-0.4 -2.5,-1.1 -4.7,-1.1 -2.2,0 -3.3,1 -3.3,2.2 0,1.4 1.3,2.1 4.1,3.2 4,1.5 5.8,3.5 5.8,6.7 0,3.8 -2.9,6.9 -9,6.9 -2.6,0 -5.1,-0.7 -6.3,-1.4 z"
                  id="path137" />
            </g>
            <g id="g138">
               <path fill="#ffffff"
                  d="m 22,165.2 -5.3,-22.4 h 5.4 l 1.7,9.2 c 0.5,2.7 1,5.5 1.3,7.8 h 0.1 c 0.4,-2.4 0.9,-5.1 1.5,-7.9 l 1.9,-9.2 H 34 l 1.8,9.4 c 0.5,2.6 0.9,5 1.2,7.5 h 0.1 c 0.3,-2.5 0.8,-5.1 1.3,-7.8 l 1.8,-9.2 h 5.1 L 39.5,165 H 34 l -1.9,-9.6 c -0.4,-2.3 -0.8,-4.3 -1.1,-6.9 h -0.1 c -0.4,2.5 -0.8,4.6 -1.3,6.9 L 27.5,165 H 22 Z"
                  id="path138" />
            </g>
            <g id="g139">
               <path fill="#ffffff"
                  d="m 281.6,155.7 h -8.2 v 5.3 h 9.2 v 4.1 h -14.3 v -22.4 h 13.8 v 4.1 h -8.7 v 4.6 h 8.2 z"
                  id="path139" />
            </g>
         </g>
         <g id="g149">
            <g id="g148">
               <g id="g141">
                  <polygon fill="#ffffff" points="150.2,77.9 165,77.9 157.6,62.2 " id="polygon140" />
               </g>
               <g id="g142">
                  <polygon fill="#ffffff" points="165,233.8 150.2,233.8 157.6,249.5 " id="polygon141" />
               </g>
               <g id="g143">
                  <polygon fill="#ffffff" points="235.5,148.4 235.5,163.3 251.2,155.9 " id="polygon142" />
               </g>
               <g id="g144">
                  <polygon fill="#ffffff" points="79.6,163.3 79.6,148.4 63.9,155.9 " id="polygon143" />
               </g>
               <g id="g147">
                  <g id="g146">
                     <g id="g145">
                        <path fill="#3cc2d9"
                           d="m 156.2,83.2 c -40.2,0 -72.9,32.6 -72.9,72.9 0,40.3 32.6,72.9 72.9,72.9 40.2,0 72.9,-32.6 72.9,-72.9 0,-40.3 -32.6,-72.9 -72.9,-72.9 z m 0,135.9 c -34.8,0 -63,-28.2 -63,-63 0,-34.8 28.2,-63 63,-63 34.8,0 63,28.2 63,63 0.1,34.8 -28.2,63 -63,63 z"
                           id="path144" />
                     </g>
                  </g>
               </g>
            </g>
         </g>
         <g id="g152">
            <path fill="#ffc50b" d="M 139.1,32.9 C 84,39.3 40,81.8 31.2,136.1 h 8.1 C 47.9,86.2 88.4,47.2 139.1,40.9 Z"
               id="path149" />
            <path fill="#ffc50b"
               d="m 170.1,33.1 v 8 c 49.7,7.1 89.3,45.7 97.8,95 H 276 C 267.4,82.5 224.3,40.4 170.1,33.1 Z"
               id="path150" />
            <path fill="#ffc50b" d="M 139.1,271.2 C 87,264.7 45.6,223.6 38.6,171.6 h -8 c 7.1,56.4 52,101 108.5,107.6 z"
               id="path151" />
            <path fill="#ffc50b"
               d="m 268.6,171.6 c -6.9,51.3 -47.3,92.1 -98.5,99.4 v 8 c 55.6,-7.4 99.5,-51.6 106.5,-107.4 z"
               id="path152" />
         </g>
         <polygon fill="#dc1f27" points="156.10063,108.37646 116.2905,183.82477 155.8885,168.55126 195.91075,183.82477 "
            id="polygon152" />
         <g id="g155">
            <g id="g154">
               <g id="g153">
                  <path fill="#dc1f27"
                     d="m 151.3,258.5 c -1.7,-0.1 -3.4,-0.2 -5.1,-0.4 l 0.3,-2.6 c 1.6,0.2 3.3,0.3 4.9,0.3 z m 9.8,-2.6 c 1.6,-0.1 3.3,-0.2 4.9,-0.4 l 0.3,2.6 c -1.7,0.2 -3.4,0.3 -5.1,0.4 z m -24.7,0.8 c -1.7,-0.3 -3.3,-0.7 -5,-1.1 l 0.6,-2.5 c 1.6,0.4 3.2,0.7 4.8,1.1 z m 39.1,-2.6 c 1.6,-0.3 3.2,-0.7 4.8,-1.1 l 0.7,2.5 c -1.6,0.4 -3.3,0.8 -5,1.1 z m -53.5,-1.3 -4.8,-1.8 1,-2.4 c 1.5,0.6 3.1,1.2 4.6,1.8 z m 67.6,-2.5 c 1.5,-0.5 3.1,-1.1 4.6,-1.8 l 1,2.4 c -1.6,0.6 -3.2,1.3 -4.8,1.8 z m -81.3,-3.5 c -1.5,-0.8 -3,-1.6 -4.4,-2.5 l 1.3,-2.2 c 1.4,0.8 2.8,1.6 4.3,2.4 z m 94.6,-2.4 c 1.4,-0.8 2.9,-1.6 4.3,-2.4 l 1.4,2.2 c -1.5,0.9 -2.9,1.7 -4.4,2.5 z M 95.6,238.8 c -1.4,-1 -2.7,-2 -4,-3.1 l 1.7,-2 3.9,3 z m 119.7,-2.2 3.9,-3 1.7,2 c -1.3,1.1 -2.7,2.1 -4,3.1 z M 84.2,229.1 c -1.2,-1.2 -2.4,-2.4 -3.5,-3.7 l 1.9,-1.7 c 1.1,1.2 2.2,2.4 3.4,3.5 z m 142.2,-1.9 c 1.2,-1.1 2.3,-2.3 3.4,-3.5 l 1.9,1.7 c -1.1,1.2 -2.3,2.5 -3.5,3.7 z M 74.3,217.9 c -1,-1.4 -2,-2.7 -3,-4.1 l 2.2,-1.4 c 0.9,1.3 1.9,2.7 2.9,4 z M 236,216.2 c 1,-1.3 1.9,-2.6 2.9,-4 l 2.2,1.4 c -1,1.4 -1.9,2.8 -3,4.1 z M 66.2,205.4 c -0.8,-1.5 -1.6,-3 -2.3,-4.5 l 2.3,-1.1 c 0.7,1.5 1.5,2.9 2.3,4.4 z m 177.7,-1.5 c 0.8,-1.4 1.5,-2.9 2.2,-4.4 l 2.3,1.1 c -0.7,1.5 -1.5,3 -2.3,4.5 z M 60,191.8 c -0.6,-1.6 -1.1,-3.2 -1.7,-4.8 l 2.5,-0.8 c 0.5,1.6 1,3.1 1.6,4.6 z m 189.9,-1.2 c 0.6,-1.5 1.1,-3.1 1.6,-4.7 l 2.5,0.7 c -0.5,1.6 -1.1,3.2 -1.7,4.8 z M 55.8,177.4 c -0.4,-1.7 -0.7,-3.4 -0.9,-5 l 2.6,-0.4 0.9,4.8 z m 198.1,-0.8 0.9,-4.8 2.6,0.4 c -0.3,1.7 -0.6,3.4 -0.9,5 z m -200.1,-14 c -0.1,-1.7 -0.2,-3.4 -0.2,-5.1 h 2.6 c 0,1.6 0.1,3.3 0.2,4.9 z m 202.1,-0.4 c 0.1,-1.8 0.2,-3.6 0.2,-5.3 h 2.6 c 0,1.8 -0.1,3.7 -0.2,5.5 z m -202,-14.6 c 0.1,-1.7 0.3,-3.4 0.5,-5.1 l 2.6,0.4 c -0.2,1.6 -0.4,3.2 -0.5,4.9 z m 201.8,-0.4 c -0.1,-1.7 -0.3,-3.3 -0.6,-4.9 l 2.6,-0.4 0.6,5.1 z M 56.2,132.8 c 0.4,-1.7 0.8,-3.3 1.3,-4.9 l 2.5,0.7 c -0.5,1.6 -0.9,3.2 -1.2,4.8 z m 197.1,0 c -0.4,-1.6 -0.8,-3.2 -1.3,-4.7 l 2.5,-0.8 c 0.5,1.6 0.9,3.3 1.3,4.9 z M 60.7,118.6 c 0.6,-1.6 1.3,-3.2 2,-4.7 L 65,115 c -0.7,1.5 -1.3,3 -1.9,4.5 z m 188.2,0.3 c -0.6,-1.5 -1.3,-3 -1.9,-4.5 l 2.3,-1.1 c 0.7,1.6 1.4,3.1 2,4.7 z M 67.2,105.1 c 0.8,-1.5 1.7,-2.9 2.7,-4.4 l 2.2,1.4 c -0.9,1.4 -1.7,2.8 -2.5,4.2 z m 175.3,0.7 c -0.8,-1.4 -1.7,-2.8 -2.6,-4.2 l 2.2,-1.4 c 0.9,1.4 1.8,2.9 2.7,4.3 z M 75.6,92.7 c 1,-1.3 2.1,-2.6 3.2,-3.9 l 1.9,1.7 c -1.1,1.2 -2.1,2.5 -3.1,3.8 z m 158.7,1.1 c -1,-1.3 -2.1,-2.5 -3.2,-3.8 l 1.9,-1.7 3.3,3.9 z M 85.6,81.6 c 1.2,-1.2 2.5,-2.3 3.8,-3.4 l 1.7,2 c -1.3,1.1 -2.5,2.2 -3.6,3.3 z m 138.8,1.5 C 223.2,82 222,80.9 220.7,79.8 l 1.7,-2 c 1.3,1.1 2.6,2.2 3.8,3.4 z M 97.2,72.1 c 1.4,-1 2.8,-1.9 4.2,-2.8 l 1.4,2.2 c -1.4,0.9 -2.8,1.8 -4.1,2.7 z M 213,73.9 c -1.3,-0.9 -2.7,-1.8 -4.1,-2.7 l 1.3,-2.2 c 1.4,0.9 2.9,1.8 4.3,2.8 z M 110.1,64.5 c 1.5,-0.7 3,-1.5 4.6,-2.2 l 1,2.4 c -1.5,0.7 -3,1.4 -4.4,2.1 z m 90.4,2 -4.5,-2.1 1,-2.4 c 1.6,0.7 3.1,1.4 4.6,2.2 z m -76.6,-7.8 c 1.6,-0.5 3.2,-1 4.9,-1.5 l 0.7,2.5 c -1.6,0.4 -3.2,0.9 -4.7,1.4 z m 63,2.3 c -1.6,-0.5 -3.1,-1 -4.7,-1.4 l 0.6,-2.5 c 1.6,0.4 3.3,0.9 4.9,1.5 z m -48.5,-5.9 c 1.7,-0.3 3.4,-0.5 5,-0.8 l 0.3,2.6 c -1.6,0.2 -3.3,0.4 -4.9,0.7 z m 34.4,2.4 c -1.6,-0.3 -3.2,-0.5 -4.9,-0.7 l 0.3,-2.6 c 1.7,0.2 3.4,0.4 5,0.7 z m -19.6,-3.9 h 2.8 2.3 l -0.1,2.6 h -2.2 -2.7 z"
                     id="path153" />
               </g>
            </g>
         </g>
      </g>
      <g id="style-2">
         <circle fill="#6d8082" cx="156.10001" cy="156.09999" r="156.10001" id="circle155" />
         <circle fill="#153359" cx="157" cy="156.09999" r="116.5" id="circle156" />
         <circle fill="#ffc50b" cx="157" cy="156.09999" r="97.400002" id="circle157" />
         <ellipse fill="#f7930f" cx="156.8" cy="155.8" rx="49.299999" ry="49.5" id="ellipse157"
            />
         <g id="g170">
            <g id="g169">
               <g id="g159">
                  <g id="g158">
                     <g id="g157">
                        <path fill="#153359"
                           d="M 150.1,29.6 V 12.1 h 4.6 l 3.6,6.4 c 1,1.8 2.1,4 2.9,6 h 0.1 C 161,22.2 161,19.8 161,17.2 v -5.1 h 3.6 v 17.5 h -4.1 l -3.7,-6.7 c -1,-1.9 -2.2,-4.1 -3,-6.2 h -0.1 c 0.1,2.3 0.2,4.8 0.2,7.6 v 5.3 z"
                           id="path157" />
                     </g>
                  </g>
               </g>
               <g id="g162">
                  <g id="g161">
                     <g id="g160">
                        <path fill="#153359"
                           d="m 152.2,297.8 c 1.1,0.5 2.7,1.1 4.4,1.1 1.8,0 2.8,-0.8 2.8,-1.9 0,-1.1 -0.8,-1.7 -2.9,-2.5 -2.9,-1 -4.8,-2.6 -4.8,-5.2 0,-3 2.5,-5.3 6.6,-5.3 2,0 3.4,0.4 4.5,0.9 l -0.9,3.2 c -0.7,-0.3 -1.9,-0.8 -3.7,-0.8 -1.7,0 -2.5,0.8 -2.5,1.7 0,1.1 1,1.6 3.2,2.5 3.1,1.1 4.5,2.8 4.5,5.2 0,2.9 -2.3,5.4 -7.1,5.4 -2,0 -4,-0.5 -5,-1.1 z"
                           id="path159" />
                     </g>
                  </g>
               </g>
               <g id="g165">
                  <g id="g164">
                     <g id="g163">
                        <path fill="#153359"
                           d="M 16.2,165.5 12,148 h 4.2 l 1.3,7.2 c 0.4,2.1 0.8,4.3 1,6.1 h 0.1 c 0.3,-1.9 0.7,-4 1.1,-6.1 l 1.5,-7.2 h 4.2 l 1.4,7.4 c 0.4,2 0.7,3.9 0.9,5.9 h 0.1 c 0.3,-1.9 0.6,-4 1,-6.1 l 1.4,-7.2 h 4 l -4.5,17.5 H 25.4 L 23.9,158 c -0.3,-1.8 -0.6,-3.4 -0.8,-5.4 H 23 c -0.3,2 -0.6,3.6 -1,5.4 l -1.7,7.5 z"
                           id="path162" />
                     </g>
                  </g>
               </g>
               <g id="g168">
                  <g id="g167">
                     <g id="g166">
                        <path fill="#153359"
                           d="m 294.7,158.1 h -6.4 v 4.2 h 7.2 v 3.2 H 284.3 V 148 h 10.8 v 3.2 h -6.8 v 3.6 h 6.4 z"
                           id="path165" />
                     </g>
                  </g>
               </g>
            </g>
         </g>
         <g id="g203">
            <g id="g202">
               <g id="g171">
                  <rect x="1093.4" y="194.5" fill="#eceff0" width="4.3000002" height="14" id="rect170"
                     transform="translate(-940,-138.3)" />
               </g>
               <g id="g174">
                  <g id="g173">
                     <g id="g172">
                        <rect x="1092.4" y="194.5" fill="#153359" width="6.5" height="14" id="rect171"
                           transform="translate(-940,-138.3)" />
                     </g>
                  </g>
               </g>
               <g id="g177">
                  <g id="g176">
                     <g id="g175">
                        <rect x="1092.4" y="379.89999" fill="#153359" width="6.5" height="14" id="rect174"
                           transform="translate(-940,-138.3)" />
                     </g>
                  </g>
               </g>
               <g id="g185">
                  <g id="g178">
                     <rect x="1181.3" y="292" fill="#eceff0" width="14" height="4.3000002" id="rect177"
                        transform="translate(-940,-138.3)" />
                  </g>
                  <g id="g181">
                     <g id="g180">
                        <g id="g179">
                           <rect x="1181.3" y="291" fill="#153359" width="14" height="6.5" id="rect178"
                              transform="translate(-940,-138.3)" />
                        </g>
                     </g>
                  </g>
                  <g id="g184">
                     <g id="g183">
                        <g id="g182">
                           <rect x="995.90002" y="291" fill="#153359" width="14" height="6.5" id="rect181"
                              transform="translate(-940,-138.3)" />
                        </g>
                     </g>
                  </g>
               </g>
               <g id="g201">
                  <g id="g186">
                     <rect x="1159" y="221.60001" fill="#eceff0" width="4.3000002" height="14" id="rect185"
                        transform="matrix(0.7071,0.7071,-0.7071,0.7071,-438.237,-892.393)" />
                  </g>
                  <g id="g189">
                     <g id="g188">
                        <g id="g187">
                           <rect x="1157.9" y="221.60001" fill="#153359" width="6.5" height="14" id="rect186"
                              transform="matrix(0.7071,0.7071,-0.7071,0.7071,-438.237,-892.393)" />
                        </g>
                     </g>
                  </g>
                  <g id="g192">
                     <g id="g191">
                        <g id="g190">
                           <rect x="1026.8" y="352.70001" fill="#153359" width="6.5" height="14" id="rect189"
                              transform="matrix(0.7071,0.7071,-0.7071,0.7071,-383.934,-761.296)" />
                        </g>
                     </g>
                  </g>
                  <g id="g200">
                     <g id="g193">
                        <rect x="1154.1" y="357.60001" fill="#eceff0" width="14" height="4.3000002" id="rect192"
                           transform="matrix(0.7071,0.7071,-0.7071,0.7071,-345.594,-853.966)" />
                     </g>
                     <g id="g196">
                        <g id="g195">
                           <g id="g194">
                              <rect x="1154.1" y="356.5" fill="#153359" width="14" height="6.5" id="rect193"
                                 transform="matrix(0.7071,0.7071,-0.7071,0.7071,-345.594,-853.966)" />
                           </g>
                        </g>
                     </g>
                     <g id="g199">
                        <g id="g198">
                           <g id="g197">
                              <rect x="1023" y="225.39999" fill="#153359" width="14" height="6.5" id="rect196"
                                 transform="matrix(0.7071,0.7071,-0.7071,0.7071,-476.587,-799.724)" />
                           </g>
                        </g>
                     </g>
                  </g>
               </g>
            </g>
         </g>
         <g id="g214">
            <g id="g213">
               <g id="g212">
                  <polygon fill="#dc1f27" points="144.35553,156.18947 156.65919,76.99349 171.43772,155.55308 "
                     id="polygon211" />
                  <polygon fill="#153359" points="171.43772,155.41166 157.43701,234.60764 144.28482,156.11876 "
                     id="polygon212" />
               </g>
               <circle fill="#3cc2d9" cx="158.35625" cy="155.48238" r="10.200004" id="circle212" />
            </g>
         </g>
         <path fill="#eceff0"
            d="m 157,51.1 c -57.9,0 -104.9,47 -104.9,104.9 0,57.9 47,104.9 104.9,104.9 57.9,0 104.9,-47 104.9,-104.9 C 261.9,98.1 215,51.1 157,51.1 Z m 0,202.3 c -53.8,0 -97.4,-43.6 -97.4,-97.4 0,-53.8 43.6,-97.4 97.4,-97.4 53.8,0 97.4,43.6 97.4,97.4 0,53.8 -43.6,97.4 -97.4,97.4 z"
            id="path214" />
      </g>
      <g id="style-1">
         <circle fill="#dc1f27" cx="156.10001" cy="156.10001" r="156.10001" id="circle214" />
         <circle fill="#3cc2d9" cx="156.10001" cy="156.10001" r="103.5" id="circle215" />
         <g id="g241">
            <path fill="#153359" d="m 165.9,42.7 c -6.5,-0.5 -13,-0.5 -19.5,0 l 9.7,16.3 z" id="path215" />
            <path fill="#153359" d="m 146.5,269.1 c 6.4,0.5 12.8,0.5 19.1,0 l -9.6,-16 z" id="path216" />
            <path fill="#153359" d="m 269.5,146.3 -16.4,9.8 16.3,9.7 c 0.6,-6.5 0.6,-13 0.1,-19.5 z" id="path217" />
            <path fill="#153359" d="m 43.1,146.5 c -0.5,6.4 -0.5,12.8 0,19.1 l 16,-9.5 z" id="path218" />
            <path fill="#153359"
               d="m 243.2,82.8 c -2.1,-2.5 -4.3,-4.9 -6.6,-7.2 -2.3,-2.3 -4.8,-4.5 -7.2,-6.6 l -4.7,18.5 z"
               id="path219" />
            <path fill="#153359" d="m 69.5,229.2 c 2,2.4 4.2,4.8 6.4,7 2.3,2.3 4.6,4.4 7,6.4 l 4.5,-18 z"
               id="path220" />
            <path fill="#153359" d="m 229.3,242.9 c 2.5,-2.1 5,-4.3 7.3,-6.7 2.2,-2.2 4.3,-4.6 6.4,-7 l -18.3,-4.6 z"
               id="path221" />
            <path fill="#153359" d="m 82.9,69.2 c -2.4,2 -4.7,4.1 -7,6.4 -2.4,2.4 -4.6,4.8 -6.7,7.3 l 18.2,4.6 z"
               id="path222" />
            <g id="g240">
               <g id="g239">
                  <g id="g223">
                     <path fill="#eceff0"
                        d="m 229.4,69 1.7,-6.8 C 212.9,47.6 191.5,39.2 169.5,36.7 l -3.6,6 c 22.7,1.9 45,10.7 63.5,26.3 z"
                        id="path223" />
                  </g>
                  <g id="g224">
                     <path fill="#eceff0"
                        d="m 83,242.7 -1.7,6.8 c 18.2,14.6 39.7,23.2 61.7,25.6 l 3.6,-6 C 123.7,267.2 101.4,258.3 83,242.7 Z"
                        id="path224" />
                  </g>
                  <g id="g225">
                     <path fill="#eceff0"
                        d="m 146.3,42.7 -3.6,-6 c -22,2.5 -43.4,11 -61.6,25.6 l 1.7,6.8 c 18.5,-15.5 40.8,-24.4 63.5,-26.4 z"
                        id="path225" />
                  </g>
                  <g id="g226">
                     <path fill="#eceff0"
                        d="m 269.4,165.8 c -2,22.8 -10.8,45 -26.5,63.5 l 6.8,1.7 c 14.6,-18.2 23.2,-39.6 25.6,-61.6 z"
                        id="path226" />
                  </g>
                  <g id="g227">
                     <path fill="#eceff0"
                        d="M 69.3,82.9 62.5,81.2 C 47.9,99.4 39.5,120.9 37.1,143 l 6,3.6 c 1.8,-22.9 10.6,-45.2 26.2,-63.7 z"
                        id="path227" />
                  </g>
                  <g id="g228">
                     <path fill="#eceff0"
                        d="m 269.5,146.3 6,-3.6 C 273.1,120.7 264.6,99.3 250,81.1 l -6.8,1.7 c 15.6,18.5 24.3,40.8 26.3,63.5 z"
                        id="path228" />
                  </g>
                  <g id="g229">
                     <path fill="#eceff0"
                        d="m 165.7,269.1 3.6,6 c 22,-2.4 43.5,-10.9 61.8,-25.4 l -1.7,-6.8 c -18.6,15.6 -41,24.3 -63.7,26.2 z"
                        id="path229" />
                  </g>
                  <g id="g230">
                     <path fill="#eceff0"
                        d="m 43.1,165.6 -6,3.6 c 2.4,22 11,43.5 25.6,61.7 l 6.8,-1.7 C 53.8,210.7 45,188.4 43.1,165.6 Z"
                        id="path230" />
                  </g>
                  <g id="g231">
                     <path fill="#eceff0"
                        d="m 165.9,42.7 3.6,-6 c -8.9,-1 -17.8,-1 -26.7,0 l 3.6,6 c 6.4,-0.5 13,-0.5 19.5,0 z"
                        id="path231" />
                  </g>
                  <g id="g232">
                     <path fill="#eceff0"
                        d="m 146.5,269.1 -3.6,6 c 8.7,1 17.6,1 26.3,0 l -3.6,-6 c -6.3,0.5 -12.7,0.5 -19.1,0 z"
                        id="path232" />
                  </g>
                  <g id="g233">
                     <path fill="#eceff0"
                        d="m 269.4,165.8 6,3.6 c 1,-8.9 1,-17.8 0,-26.7 l -6,3.6 c 0.6,6.5 0.6,13 0,19.5 z"
                        id="path233" />
                  </g>
                  <g id="g234">
                     <path fill="#eceff0"
                        d="m 43.1,146.5 -6,-3.6 c -0.9,8.7 -0.9,17.6 0,26.3 l 6,-3.6 c -0.6,-6.3 -0.6,-12.7 0,-19.1 z"
                        id="path234" />
                  </g>
                  <g id="g235">
                     <path fill="#eceff0"
                        d="m 236.6,75.6 c 2.3,2.3 4.5,4.8 6.6,7.2 l 6.8,-1.7 c -2.8,-3.5 -5.7,-6.8 -8.9,-10 -3.2,-3.2 -6.6,-6.2 -10,-8.9 l -1.7,6.8 c 2.4,2.1 4.9,4.2 7.2,6.6 z"
                        id="path235" />
                  </g>
                  <g id="g236">
                     <path fill="#eceff0"
                        d="m 75.9,236.3 c -2.3,-2.3 -4.4,-4.6 -6.4,-7 l -6.8,1.7 c 2.7,3.4 5.6,6.7 8.8,9.8 3.1,3.1 6.4,6 9.8,8.8 l 1.7,-6.8 c -2.5,-2.2 -4.8,-4.3 -7.1,-6.5 z"
                        id="path236" />
                  </g>
                  <g id="g237">
                     <path fill="#eceff0"
                        d="m 236.6,236.3 c -2.4,2.4 -4.8,4.6 -7.3,6.7 l 1.7,6.8 c 3.5,-2.8 6.9,-5.8 10.1,-9 3.1,-3.1 6,-6.4 8.7,-9.7 l -6.8,-1.7 c -2,2.3 -4.1,4.6 -6.4,6.9 z"
                        id="path237" />
                  </g>
                  <g id="g238">
                     <path fill="#eceff0"
                        d="m 75.9,75.6 c 2.2,-2.2 4.6,-4.3 7,-6.4 l -1.7,-6.8 c -3.4,2.7 -6.6,5.6 -9.7,8.7 -3.2,3.2 -6.2,6.6 -9,10.1 l 6.8,1.7 c 2.1,-2.5 4.3,-5 6.6,-7.3 z"
                        id="path238" />
                  </g>
               </g>
            </g>
         </g>
         <g id="g250" />
         <g id="g248">
            <g id="g247">
               <g id="g246">
                  <g id="g242" />
                  <g id="g243" />
                  <g id="g244" />
                  <g id="g245" />
               </g>
               <g id="g275">
                  <g id="g271" />
                  <g id="g272" />
                  <g id="g273" />
                  <g id="g274" />
               </g>
            </g>
         </g>
         <polygon fill="#153359" points="156.1,144 162.2,150 200.3,111.9 " id="polygon241" />
         <polygon fill="#153359" points="143.6,156.5 111.9,200.3 149.6,162.6 " id="polygon242" />
         <polygon fill="#153359" points="168.2,156.1 162.1,150 200.3,111.8 " id="polygon243" />
         <polygon fill="#153359" points="155.7,168.6 111.9,200.3 149.6,162.6 " id="polygon244" />
         <polygon fill="#153359" points="150.05,149.95 111.95,111.85 144.05,156.05 " id="polygon270"
            />
         <polygon fill="#153359" points="200.35,200.25 162.65,162.55 156.55,168.55 " id="polygon271"
            />
         <polygon fill="#153359" points="150.05,150.05 111.85,111.85 156.15,143.95 " id="polygon272"
            />
         <polygon fill="#153359" points="200.35,200.25 162.65,162.55 168.65,156.45 " id="polygon273"
            />
         <polygon fill="#eceff0"
            points="226.3,156.1 226.2,156.1 167.9,144.3 156.1,85.9 156.1,85.8 156.1,85.9 156.1,85.8 156.1,85.9 144.4,144.1 86,156.1 85.9,156.1 86,156.1 144.2,168 156.1,226.2 156.1,226.3 156.1,226.2 168.1,167.8 226.2,156.1 "
            id="polygon248" />
         <g id="g249">
            <path fill="#ffc50b"
               d="m 152.059,85.9416 -17.324,66.8214 c -0.283,1.273 -0.142,3.96 0.212,5.162 l 22.768,65.62 c 0.637,2.05 3.607,1.909 4.031,-0.213 l 16.688,-66.892 c 0.283,-1.273 0.141,-3.96 -0.212,-5.162 L 156.089,85.7294 c -0.636,-2.0506 -3.535,-1.8384 -4.03,0.2122 z"
               id="path248" />
            <circle fill="#3cc2d9" cx="156.93767" cy="155.02594" r="15.800005" id="circle248" />
         </g>
         <path fill="#153359"
            d="m 156.2,287.7 v -2.4 c 2.3,0 4.7,-0.1 7,-0.2 l 0.1,2.4 c -2.3,0.1 -4.7,0.2 -7.1,0.2 z m -7.1,-0.2 c -2.4,-0.1 -4.7,-0.3 -7.1,-0.6 l 0.3,-2.4 c 2.3,0.2 4.7,0.4 7,0.6 z m 21.4,-0.6 -0.3,-2.4 c 2.3,-0.2 4.6,-0.6 6.9,-0.9 l 0.4,2.4 c -2.3,0.3 -4.7,0.6 -7,0.9 z M 135,286 c -2.3,-0.4 -4.7,-0.8 -7,-1.3 l 0.5,-2.3 c 2.3,0.5 4.6,0.9 6.9,1.3 z m 49.5,-1.4 -0.5,-2.3 c 2.3,-0.5 4.5,-1.1 6.8,-1.7 l 0.6,2.3 c -2.3,0.6 -4.6,1.2 -6.9,1.7 z m -63.4,-1.7 c -2.3,-0.6 -4.6,-1.3 -6.8,-2.1 l 0.8,-2.3 c 2.2,0.7 4.5,1.4 6.7,2 z m 77.1,-2.1 -0.8,-2.3 c 2.2,-0.7 4.4,-1.6 6.6,-2.4 l 0.9,2.2 c -2.2,0.9 -4.4,1.7 -6.7,2.5 z m -90.7,-2.4 c -2.2,-0.9 -4.4,-1.8 -6.6,-2.8 l 1,-2.2 c 2.1,1 4.3,1.9 6.4,2.8 z m 103.9,-2.9 -1,-2.2 c 2.1,-1 4.2,-2 6.3,-3.1 l 1.1,2.1 c -2.1,1.1 -4.2,2.2 -6.4,3.2 z M 94.6,272.4 c -2.1,-1.1 -4.2,-2.3 -6.2,-3.5 l 1.2,-2 c 2,1.2 4.1,2.4 6.1,3.4 z m 129.4,-3.6 -1.2,-2 c 2,-1.2 4,-2.5 5.9,-3.8 l 1.3,2 c -2,1.3 -4,2.6 -6,3.8 z M 82.4,265.1 c -1.9,-1.3 -3.9,-2.7 -5.8,-4.2 L 78,259 c 1.9,1.4 3.8,2.8 5.7,4.1 z m 153.4,-4.3 -1.4,-1.9 c 1.9,-1.4 3.7,-2.9 5.4,-4.4 l 1.5,1.8 c -1.8,1.6 -3.6,3.1 -5.5,4.5 z M 71,256.5 c -1.8,-1.5 -3.6,-3.1 -5.3,-4.8 l 1.6,-1.7 c 1.7,1.6 3.4,3.2 5.2,4.7 z m 175.6,-4.9 -1.6,-1.7 c 1.7,-1.6 3.4,-3.3 4.9,-4.9 l 1.7,1.6 c -1.6,1.7 -3.2,3.4 -5,5 z M 60.7,246.7 c -1.6,-1.7 -3.2,-3.5 -4.8,-5.3 l 1.8,-1.5 c 1.5,1.8 3.1,3.5 4.7,5.2 z m 195.7,-5.4 -1.8,-1.5 c 1.5,-1.8 3,-3.6 4.4,-5.5 l 1.9,1.4 c -1.4,1.9 -2.9,3.7 -4.5,5.6 z m -205,-5.5 C 50,233.9 48.6,232 47.2,230 l 2,-1.3 c 1.3,1.9 2.7,3.8 4.1,5.7 z m 213.6,-5.9 -2,-1.3 c 1.3,-1.9 2.6,-3.9 3.8,-5.9 l 2,1.2 c -1.1,2 -2.4,4.1 -3.8,6 z M 43.4,224.1 c -1.2,-2 -2.4,-4.1 -3.5,-6.2 l 2.1,-1.1 c 1.1,2 2.3,4.1 3.5,6.1 z m 229,-6.4 -2.1,-1.1 c 1.1,-2.1 2.1,-4.2 3.1,-6.3 l 2.2,1 c -1,2.2 -2.1,4.3 -3.2,6.4 z M 36.7,211.5 c -1,-2.1 -1.9,-4.3 -2.8,-6.5 l 2.2,-0.9 c 0.9,2.1 1.8,4.3 2.8,6.4 z m 241.7,-6.7 -2.2,-0.9 c 0.9,-2.2 1.7,-4.4 2.4,-6.6 l 2.3,0.8 c -0.8,2.2 -1.6,4.5 -2.5,6.7 z m -247,-6.5 c -0.8,-2.2 -1.5,-4.5 -2.1,-6.8 l 2.3,-0.6 c 0.6,2.2 1.3,4.5 2.1,6.7 z m 251.5,-7 -2.3,-0.6 c 0.6,-2.2 1.2,-4.5 1.7,-6.8 l 2.3,0.5 c -0.4,2.3 -1,4.6 -1.7,6.9 z M 27.6,184.6 c -0.5,-2.3 -1,-4.7 -1.3,-7 l 2.4,-0.4 c 0.4,2.3 0.8,4.6 1.3,6.9 z m 258.4,-7.3 -2.4,-0.4 c 0.4,-2.3 0.7,-4.6 0.9,-6.9 l 2.4,0.3 c -0.2,2.3 -0.5,4.7 -0.9,7 z M 25.3,170.6 c -0.3,-2.3 -0.5,-4.7 -0.6,-7.1 l 2.4,-0.1 c 0.1,2.3 0.3,4.7 0.6,7 z m 262.2,-7.4 -2.4,-0.1 c 0.1,-2.3 0.2,-4.7 0.2,-7 v -0.5 h 2.4 v 0.5 c 0,2.3 -0.1,4.7 -0.2,7.1 z M 26.9,156.3 h -2.4 v -0.2 c 0,-2.3 0.1,-4.6 0.2,-6.9 l 2.4,0.1 c -0.1,2.2 -0.2,4.5 -0.2,6.7 z m 258.2,-7.7 c -0.1,-2.3 -0.3,-4.7 -0.6,-7 l 2.4,-0.3 c 0.3,2.3 0.5,4.7 0.6,7.1 z m -257.5,-6.2 -2.4,-0.2 c 0.2,-2.4 0.6,-4.7 0.9,-7.1 l 2.4,0.4 c -0.3,2.2 -0.6,4.6 -0.9,6.9 z m 256,-7.7 c -0.4,-2.3 -0.8,-4.6 -1.3,-6.9 l 2.3,-0.5 c 0.5,2.3 1,4.6 1.4,7 z m -253.8,-6.1 -2.3,-0.5 c 0.5,-2.3 1.1,-4.6 1.7,-6.9 l 2.3,0.6 c -0.6,2.2 -1.2,4.5 -1.7,6.8 z M 280.5,121 c -0.6,-2.2 -1.3,-4.5 -2.1,-6.7 l 2.3,-0.8 c 0.8,2.2 1.5,4.5 2.1,6.8 z m -247,-5.9 -2.3,-0.8 c 0.8,-2.3 1.6,-4.5 2.4,-6.7 l 2.2,0.9 c -0.7,2.2 -1.5,4.4 -2.3,6.6 z M 276,107.8 c -0.9,-2.1 -1.8,-4.3 -2.8,-6.4 l 2.2,-1 c 1,2.1 2,4.3 2.8,6.5 z m -237.3,-5.7 -2.2,-1 c 1,-2.2 2.1,-4.3 3.2,-6.4 l 2.1,1.1 c -1.1,2 -2.1,4.1 -3.1,6.3 z m 231.4,-7 C 269,93.1 267.8,91 266.6,89 l 2,-1.2 c 1.2,2 2.4,4.1 3.5,6.2 z m -224.9,-5.4 -2,-1.2 c 1.2,-2 2.5,-4 3.8,-6 l 2,1.3 c -1.3,1.9 -2.6,3.9 -3.8,5.9 z m 217.6,-6.5 c -1.3,-1.9 -2.7,-3.8 -4.1,-5.7 l 1.9,-1.5 c 1.4,1.9 2.8,3.8 4.2,5.8 z M 53.1,78.1 51.2,76.7 c 1.4,-1.9 2.9,-3.8 4.5,-5.6 l 1.8,1.5 c -1.5,1.8 -3,3.6 -4.4,5.5 z m 201.2,-6 c -1.5,-1.8 -3.1,-3.5 -4.7,-5.2 l 1.7,-1.6 c 1.6,1.7 3.2,3.5 4.8,5.3 z M 62.1,67.4 60.4,65.8 c 1.6,-1.7 3.3,-3.4 5,-5 l 1.6,1.7 c -1.6,1.6 -3.3,3.2 -4.9,4.9 z M 244.7,62 c -1.7,-1.6 -3.5,-3.2 -5.2,-4.7 l 1.5,-1.8 c 1.8,1.5 3.6,3.1 5.3,4.7 z M 72.3,57.8 70.7,56 c 1.8,-1.5 3.7,-3 5.5,-4.5 l 1.5,1.9 c -1.9,1.4 -3.7,2.9 -5.4,4.4 z M 234,53 c -1.9,-1.4 -3.8,-2.8 -5.7,-4.1 l 1.3,-2 c 2,1.3 3.9,2.7 5.8,4.1 z m -150.6,-3.7 -1.3,-2 c 1.9,-1.3 4,-2.6 6,-3.9 l 1.2,2 c -2.1,1.3 -4,2.6 -5.9,3.9 z m 139,-4.2 c -2,-1.2 -4,-2.3 -6.1,-3.4 l 1.1,-2.1 c 2.1,1.1 4.2,2.3 6.2,3.5 z M 95.3,42 94.2,39.9 c 2.1,-1.1 4.2,-2.2 6.4,-3.2 l 1,2.2 c -2.2,1 -4.3,2.1 -6.3,3.1 z M 210,38.6 c -2.1,-1 -4.3,-1.9 -6.4,-2.8 l 0.9,-2.2 c 2.2,0.9 4.4,1.8 6.6,2.8 z M 107.9,36.1 107,33.9 c 2.2,-0.9 4.5,-1.7 6.7,-2.5 l 0.8,2.3 z M 197,33.5 c -2.2,-0.7 -4.5,-1.4 -6.7,-2 l 0.6,-2.3 c 2.3,0.6 4.6,1.3 6.8,2.1 z m -75.8,-1.9 -0.6,-2.3 c 2.3,-0.6 4.6,-1.2 6.9,-1.7 l 0.5,2.3 c -2.3,0.5 -4.6,1.1 -6.8,1.7 z m 62.3,-1.8 c -2.3,-0.5 -4.6,-0.9 -6.9,-1.3 l 0.4,-2.4 c 2.3,0.4 4.7,0.8 7,1.3 z m -48.7,-1.2 -0.4,-2.4 c 2.3,-0.4 4.7,-0.7 7.1,-1 l 0.3,2.4 c -2.4,0.3 -4.7,0.6 -7,1 z m 34.9,-1 c -2.3,-0.2 -4.6,-0.4 -7,-0.5 l 0.1,-2.4 c 2.4,0.1 4.8,0.3 7.1,0.6 z m -21,-0.5 -0.1,-2.4 c 2.3,-0.1 4.7,-0.2 7.1,-0.2 v 2.4 c -2.3,0 -4.7,0 -7,0.2 z"
            id="path250" />
      </g>
      <g id="style-0">
         <circle fill="#153359" cx="156.10001" cy="156.10001" r="156.10001" id="circle252" />
         <circle fill="#3cc2d9" cx="157" cy="156.10001" r="117.5" id="circle253" />
         <circle fill="#eceff0" cx="157" cy="156.10001" r="84" id="circle254" />
         <polygon fill="#c4c6c6"
            points="156.6,218.2 156.6,218.2 156.6,218.2 156.6,218.1 165.7,173.8 195.4,195.3 195.4,195.4 195.4,195.3 195.5,195.4 195.4,195.3 173.8,165.5 218.2,156.5 218.3,156.5 218.2,156.5 173.8,147.5 195.4,117.7 195.5,117.6 195.4,117.7 195.4,117.6 195.4,117.7 165.6,139.3 156.6,94.9 156.6,94.8 156.6,94.9 147.6,139.3 117.8,117.7 117.7,117.6 117.8,117.7 117.7,117.6 117.8,117.7 139.2,147.4 95,156.5 94.9,156.5 95,156.5 139.3,165.6 117.8,195.3 117.7,195.4 117.8,195.3 117.7,195.4 117.8,195.3 147.5,173.8 156.6,218.1 "
            id="polygon254" />
         <g id="north">
            <polygon fill="#dc1f27" points="144.90888,156.8539 156.57615,81.688427 170.64758,156.28822 "
               id="polygon255" />
            <polygon fill="#153359" points="170.64758,156.14679 157.42467,231.31227 144.90888,156.8539 "
               id="polygon256" />
         </g>
         <circle fill="#153359" cx="226.10001" cy="86.300018" r="4.5999999" id="circle258" />
         <circle fill="#153359" cx="86.400002" cy="225.99998" r="4.5999999" id="circle259" />
         <circle fill="#153359" cx="226.10001" cy="225.99998" r="4.5999999" id="circle260" />
         <circle fill="#153359" cx="86.400002" cy="86.300018" r="4.5999999" id="circle261" />
         <path fill="#eceff0"
            d="m 152.6,261 c 0.8,0.4 2,0.8 3.3,0.8 1.4,0 2.1,-0.6 2.1,-1.4 0,-0.8 -0.6,-1.3 -2.2,-1.8 -2.2,-0.8 -3.6,-2 -3.6,-3.8 0,-2.2 1.9,-3.9 4.9,-3.9 1.5,0 2.6,0.3 3.3,0.7 l -0.7,2.4 c -0.5,-0.3 -1.4,-0.6 -2.7,-0.6 -1.3,0 -1.9,0.6 -1.9,1.3 0,0.8 0.7,1.2 2.4,1.8 2.3,0.8 3.4,2 3.4,3.9 0,2.2 -1.7,4 -5.3,4 -1.5,0 -3,-0.4 -3.7,-0.8 z"
            id="path263" />
         <path fill="#eceff0"
            d="m 151.1,61.4 v -13 h 3.4 l 2.7,4.8 c 0.8,1.4 1.5,3 2.1,4.5 h 0.1 c -0.2,-1.7 -0.3,-3.5 -0.3,-5.4 v -3.9 h 2.7 v 13 h -3.1 l -2.8,-5 c -0.8,-1.4 -1.6,-3.1 -2.3,-4.6 h -0.1 c 0.1,1.7 0.1,3.6 0.1,5.7 v 3.9 z"
            id="path262" />
         <path fill="#eceff0"
            d="m 51.3,162.6 -3.1,-13 h 3.1 l 1,5.4 c 0.3,1.5 0.6,3.2 0.8,4.5 v 0 c 0.2,-1.4 0.5,-3 0.9,-4.6 l 1.1,-5.3 h 3.1 l 1,5.5 c 0.3,1.5 0.5,2.9 0.7,4.4 v 0 c 0.2,-1.4 0.5,-3 0.8,-4.5 l 1.1,-5.3 h 3 l -3.4,13 h -3.2 l -1.1,-5.6 c -0.3,-1.3 -0.5,-2.5 -0.6,-4 v 0 c -0.2,1.5 -0.4,2.7 -0.8,4 l -1.2,5.6 h -3.2 z"
            id="path264" />
         <path fill="#eceff0" d="m 258.7,157.1 h -4.8 v 3.1 h 5.4 v 2.4 H 251 v -13 h 8 v 2.4 h -5.1 v 2.7 h 4.8 z"
            id="path265" />
      </g>
   </g>
</svg>