<svg viewBox="0 0 312.20001 312.20001" version="1.1" id="svg270" width="312.20001" height="312.20001"
   xmlns="http://www.w3.org/2000/svg" xmlns:svg="http://www.w3.org/2000/svg">
   <defs id="defs270" />
   <g id="g270">
      <g id="compass-1" transform="translate(-537.60001,-537.60001)" style="display:inline">
         <circle fill="#3cc2d9" cx="693.70001" cy="693.70001" r="156.10001" id="circle10" />
         <g id="g30" style="display:inline">
            <circle fill="#ffffff" cx="694.40002" cy="694.40002" r="86.300003" id="circle13" />
            <circle fill="#eceff0" cx="694.40002" cy="694.40002" r="62.400002" id="circle14" />
            <circle fill="#bcc1c6" cx="694.40002" cy="620" r="6.5" id="circle15" />
            <circle fill="#bcc1c6" cx="694.40002" cy="768.5" r="6.5" id="circle16" />
            <circle fill="#bcc1c6" cx="768.59998" cy="694.29999" r="6.5" id="circle17" />
            <g id="g27" style="display:inline">
               <g id="g26" style="display:inline">
                  <g id="g21" style="display:inline">
                     <g id="g17">
                        <polygon fill="#ffc50b" points="682.3,694.4 694.5,656.2 706.5,694.4 " id="polygon17" />
                     </g>
                     <g id="g18">
                        <polygon fill="#ffc50b" points="706.5,694.4 694.3,732.6 682.3,694.4 " id="polygon18" />
                     </g>
                     <g id="g19">
                        <polygon fill="#ffc50b" points="694.4,682.3 732.6,694.5 694.4,706.5 " id="polygon19" />
                     </g>
                     <g id="g20">
                        <polygon fill="#ffc50b" points="694.4,706.5 656.2,694.3 694.4,682.3 " id="polygon20" />
                     </g>
                  </g>
                  <g id="g22" style="display:inline">
                     <polygon fill="#c4c6c6" points="721.6,667.4 699.8,699.6 689.4,689.2 " id="polygon21" />
                  </g>
                  <g id="g23" style="display:inline">
                     <polygon fill="#c4c6c6" points="699.8,699.6 667.5,721.4 689.4,689.2 " id="polygon22" />
                  </g>
                  <g id="g24" style="display:inline">
                     <polygon fill="#ffc50b" points="699.8,689.2 721.5,721.4 689.4,699.6 " id="polygon23" />
                  </g>
                  <g id="g25">
                     <polygon fill="#ffc50b" points="667.6,667.3 699.8,689.2 689.4,699.6 " id="polygon24" />
                  </g>
               </g>
            </g>
            <circle fill="#bcc1c6" cx="620.09998" cy="694.29999" r="6.5" id="circle27" />
            <g id="g29" style="display:inline">
               <g id="g28" transform="rotate(-40,694.40417,692.85173)">
                  <path fill="#dc1f27" d="M 706.3,702.7 682.5,683 722.9,654.9 c 2.9,-2 5.4,0.1 3.9,3.3 z" id="path27" />
                  <path fill="#153359" d="m 682.5,682.9 23.8,19.8 -40.4,28.1 c -2.9,2 -5.4,-0.1 -3.9,-3.3 z"
                     id="path28" />
               </g>
               <circle fill="#ffffff" cx="694.20001" cy="693.09998" r="11.2" id="circle28" />
            </g>
         </g>
         <g id="g37" style="display:inline">
            <g id="g34">
               <g id="g33">
                  <g id="g32">
                     <g id="g31">
                        <path fill="#ffc50b"
                           d="m 694,571.8 c -67.9,0 -123,55.1 -123,123 0,67.9 55.1,123 123,123 67.9,0 123,-55.1 123,-123 0,-67.9 -55.1,-123 -123,-123 z m 0,236.1 c -62.5,0 -113.1,-50.7 -113.1,-113.1 0,-62.4 50.6,-113.2 113.1,-113.2 62.5,0 113.1,50.7 113.1,113.1 0,62.4 -50.7,113.2 -113.1,113.2 z"
                           id="path30" />
                     </g>
                  </g>
               </g>
            </g>
            <path fill="#153359"
               d="m 694.1,571.7 c -8.3,0 -16.6,1.1 -16.6,1.1 l 16.5,27.6 16.5,-27.6 c -0.1,0 -8.2,-1.1 -16.4,-1.1 z"
               id="path34" />
            <path fill="#153359"
               d="m 693.9,818.3 c 8.3,0 16.6,-1.1 16.6,-1.1 L 694,789.6 677.5,817.2 c 0,0 8.1,1.1 16.4,1.1 z"
               id="path35" />
            <path fill="#153359"
               d="m 817.2,695.1 c 0,-8.3 -1.1,-16.6 -1.1,-16.6 l -27.6,16.5 27.6,16.5 c 0,0 1.1,-8.2 1.1,-16.4 z"
               id="path36" />
            <path fill="#153359"
               d="m 570.7,694.9 c 0,8.3 1.1,16.6 1.1,16.6 L 599.4,695 571.8,678.5 c 0,0 -1.1,8.2 -1.1,16.4 z"
               id="path37" />
         </g>
      </g>
      <g id="compass-4" transform="translate(-537.60001,-138.29999)" style="display:none">
         <circle fill="#153359" cx="693.70001" cy="294.39999" r="156.10001" id="circle97" />
         <circle fill="#0b2847" cx="699.90002" cy="300.5" r="70.199997" id="circle98" />
         <circle fill="#3cc2d9" cx="695" cy="295.70001" r="70.199997" id="circle99" />
         <g id="g106">
            <g id="g105">
               <g id="g100">
                  <circle fill="#3cc2d9" cx="693.70001" cy="171.7" r="8.1999998" id="circle100" />
               </g>
               <g id="g101">
                  <circle fill="#3cc2d9" cx="693.70001" cy="418.60001" r="8.1999998" id="circle101" />
               </g>
               <g id="g104">
                  <g id="g102">
                     <circle fill="#3cc2d9" cx="817.09998" cy="295.20001" r="8.1999998" id="circle102" />
                  </g>
                  <g id="g103">
                     <circle fill="#3cc2d9" cx="570.29999" cy="295.20001" r="8.1999998" id="circle103" />
                  </g>
               </g>
            </g>
         </g>
         <g id="g107">
            <path fill="#eceff0"
               d="m 694,195.9 c -54.7,0 -99.1,44.4 -99.1,99.1 0,54.7 44.4,99.1 99.1,99.1 54.7,0 99.1,-44.4 99.1,-99.1 0,-54.7 -44.4,-99.1 -99.1,-99.1 z m 0,190.3 c -50.3,0 -91.2,-40.8 -91.2,-91.2 0,-50.4 40.8,-91.2 91.2,-91.2 50.3,0 91.2,40.8 91.2,91.2 0,50.4 -40.9,91.2 -91.2,91.2 z"
               id="path106" />
         </g>
         <g id="g108" style="display:inline" transform="rotate(-40,694.07977,296.91194)">
            <path fill="#eceff0"
               d="m 765.8,206 -99.4,61.5 c -1.8,1.2 -2,3.7 -0.5,5.3 -1.8,-1.2 -4.2,-0.5 -5.1,1.4 l -43.6,109.3 c -1.5,3.2 2.3,6.4 5.2,4.3 l 98.5,-62.4 c 1.8,-1.2 2,-3.7 0.5,-5.3 1.8,1.2 4.2,0.5 5.1,-1.4 L 771,210.4 c 1.5,-3.3 -2.2,-6.4 -5.2,-4.4 z"
               id="path107" />
            <circle fill="#ffc50b" cx="693.70001" cy="297.60001" r="41.5" id="circle107" />
            <circle fill="#dc1f27" cx="693.70001" cy="297.60001" r="26.6" id="circle108" />
         </g>
      </g>
      <g id="compass-5" transform="translate(-135.19998,-537.60001)" style="display:none">
         <circle fill="#153359" cx="291.29999" cy="693.70001" r="156.10001" id="circle109" />
         <g id="g126">
            <path fill="#dc1f27"
               d="m 299.9,589.9 -8.6,14.4 -8.6,-14.4 c -48.5,4.1 -87,42.8 -91,91.3 l 14.2,8.5 -14.2,8.5 c 4.2,48.4 42.8,86.9 91.2,90.9 l 8.4,-14 8.4,14 c 48.4,-4 87.1,-42.5 91.2,-90.9 l -14.2,-8.5 14.2,-8.5 C 387,632.7 348.4,594 299.9,589.9 Z"
               id="path109" />
            <path fill="#eceff0"
               d="m 291.3,546.4 c -81.4,0 -147.3,66 -147.3,147.3 0,81.3 66,147.3 147.3,147.3 81.3,0 147.3,-66 147.3,-147.3 0,-81.3 -65.9,-147.3 -147.3,-147.3 z m 14.6,253.2 0.3,0.4 c 0,0 -7.5,1 -15,1 -7.4,0 -14.8,-1 -14.8,-1 l 0.3,-0.4 c -49.5,-6.5 -88.8,-45.7 -95.4,-95.2 l -0.3,0.2 c 0,0 -1,-7.5 -1,-15 0,-7.4 1,-14.8 1,-14.8 l 0.2,0.1 c 6.5,-49.6 45.7,-88.9 95.2,-95.5 v 0 c 0,0 7.5,-1 15,-1 7.4,0 14.8,1 14.8,1 v 0 c 49.6,6.6 88.8,45.9 95.2,95.5 l 0.2,-0.1 c 0,0 1,7.5 1,15 0,7.4 -1,14.8 -1,14.8 l -0.3,-0.2 c -6.6,49.6 -45.8,88.7 -95.4,95.2 z"
               id="path110" />
            <path fill="#3cc2d9"
               d="m 191.7,698.2 -10.4,6.2 c 6.7,49.5 45.9,88.6 95.4,95.2 l 6.2,-10.5 c -48.4,-4 -87,-42.5 -91.2,-90.9 z"
               id="path111" />
            <path fill="#3cc2d9"
               d="M 391,681.2 401.5,675 C 395,625.4 355.8,586.1 306.3,579.5 l -6.2,10.4 c 48.3,4.1 86.9,42.8 90.9,91.3 z"
               id="path112" />
            <path fill="#3cc2d9"
               d="m 282.7,589.9 -6.2,-10.4 c -49.6,6.6 -88.8,45.9 -95.2,95.5 l 10.5,6.2 c 3.9,-48.5 42.4,-87.2 90.9,-91.3 z"
               id="path113" />
            <path fill="#3cc2d9"
               d="m 299.7,789.2 6.2,10.5 c 49.5,-6.5 88.8,-45.7 95.4,-95.2 l -10.4,-6.2 c -4.1,48.3 -42.8,86.8 -91.2,90.9 z"
               id="path114" />
            <path fill="#153359" d="m 299.9,589.9 c -2.8,-0.2 -5.7,-0.4 -8.6,-0.4 -2.9,0 -5.8,0.2 -8.6,0.4 l 8.6,14.4 z"
               id="path115" />
            <path fill="#153359"
               d="m 306.2,579.5 v 0 c 0,0 -7.4,-1.1 -14.8,-1.1 -7.5,0 -15,1 -15,1 v 0 c 4.9,-0.7 9.8,-1 14.9,-1 5.1,0 10,0.4 14.9,1.1 z"
               id="path116" />
            <path fill="#153359"
               d="m 291.3,589.5 c 2.9,0 5.8,0.2 8.6,0.4 l 6.2,-10.4 c -4.9,-0.7 -9.8,-1 -14.9,-1 -5,0 -10,0.4 -14.9,1 l 6.2,10.4 c 3,-0.2 5.9,-0.4 8.8,-0.4 z"
               id="path117" />
            <path fill="#153359"
               d="m 276.7,799.6 -0.3,0.4 c 0,0 7.4,1 14.8,1 7.5,0 15,-1 15,-1 l -0.3,-0.4 c -4.8,0.6 -9.7,1 -14.6,1 -4.9,0 -9.8,-0.4 -14.6,-1 z"
               id="path118" />
            <path fill="#153359" d="m 283,789.2 c 2.8,0.2 5.6,0.4 8.4,0.4 2.8,0 5.6,-0.1 8.4,-0.4 l -8.4,-14 z"
               id="path119" />
            <path fill="#153359"
               d="m 291.3,789.5 c -2.8,0 -5.6,-0.1 -8.4,-0.4 l -6.2,10.5 c 4.8,0.6 9.7,1 14.6,1 5,0 9.8,-0.4 14.6,-1 l -6.2,-10.5 c -2.8,0.3 -5.6,0.4 -8.4,0.4 z"
               id="path120" />
            <path fill="#153359"
               d="m 402.7,689.8 c 0,-7.5 -1,-15 -1,-15 l -0.2,0.1 c 0.6,4.8 1,9.6 1,14.5 0,5.1 -0.4,10 -1,14.9 l 0.3,0.2 c -0.2,0.1 0.9,-7.3 0.9,-14.7 z"
               id="path121" />
            <path fill="#153359" d="m 390.9,698.2 c 0.2,-2.9 0.4,-5.8 0.4,-8.7 0,-2.8 -0.1,-5.6 -0.4,-8.3 l -14.2,8.5 z"
               id="path122" />
            <path fill="#153359"
               d="m 401.4,675 -10.5,6.2 c 0.2,2.7 0.4,5.5 0.4,8.3 0,2.9 -0.2,5.8 -0.4,8.7 l 10.4,6.2 c 0.7,-4.9 1,-9.9 1,-14.9 0.1,-4.9 -0.2,-9.8 -0.9,-14.5 z"
               id="path123" />
            <path fill="#153359" d="m 191.7,681.2 c -0.2,2.7 -0.4,5.5 -0.4,8.3 0,2.9 0.2,5.8 0.4,8.7 l 14.2,-8.5 z"
               id="path124" />
            <path fill="#153359"
               d="m 181.2,675 -0.2,-0.1 c 0,0 -1,7.4 -1,14.8 0,7.5 1,15 1,15 l 0.3,-0.2 c -0.7,-4.9 -1,-9.9 -1,-14.9 -0.1,-5 0.3,-9.9 0.9,-14.6 z"
               id="path125" />
            <path fill="#153359"
               d="m 191.3,689.5 c 0,-2.8 0.1,-5.6 0.4,-8.3 L 181.2,675 c -0.6,4.8 -1,9.6 -1,14.5 0,5.1 0.4,10 1,14.9 l 10.4,-6.2 c -0.1,-2.8 -0.3,-5.7 -0.3,-8.7 z"
               id="path126" />
         </g>
         <polygon fill="#c40816"
            points="270.5,671 210.7,690 210.6,690 210.7,690 210.6,690.1 210.7,690.1 270.6,709.1 291.5,770.9 291.5,770.9 291.6,770.9 291.6,770.9 291.6,770.9 312.5,709.1 372.4,690 372.5,690 372.4,690 372.5,690 372.4,690 312.6,671 291.6,609.2 291.6,609.1 291.6,609.2 291.5,609.1 291.5,609.2 "
            id="polygon126" />
         <g id="g129" style="display:inline" transform="rotate(50,291.35,689.7)">
            <g id="g128">
               <path fill="#3cc2d9" d="m 276.5,707.5 29.6,-35.7 42.1,60.4 c 3,4.3 -0.2,8.1 -5,5.9 z" id="path127" />
               <path fill="#153359" d="m 306.2,671.9 -29.6,35.7 -42.1,-60.4 c -3,-4.3 0.2,-8.1 5,-5.9 z" id="path128" />
            </g>
            <circle fill="#ffc50b" cx="290.89999" cy="689.40002" r="16.700001" id="circle128" />
         </g>
         <g id="g135" style="display:inline">
            <g id="g134">
               <g id="g130">
                  <path fill="#153359"
                     d="m 283.4,569.8 v -16.5 h 4.3 l 3.4,6 c 1,1.7 2,3.8 2.7,5.6 h 0.1 c -0.2,-2.2 -0.3,-4.4 -0.3,-6.9 v -4.8 h 3.4 v 16.5 h -3.9 l -3.5,-6.4 c -1,-1.8 -2.1,-3.9 -2.9,-5.8 h -0.1 c 0.1,2.2 0.1,4.5 0.1,7.2 v 5 h -3.3 z"
                     id="path129" />
               </g>
               <g id="g131">
                  <path fill="#153359"
                     d="m 285.3,822.3 c 1,0.5 2.5,1 4.1,1 1.7,0 2.6,-0.7 2.6,-1.8 0,-1 -0.8,-1.6 -2.8,-2.3 -2.7,-1 -4.5,-2.5 -4.5,-4.9 0,-2.8 2.3,-5 6.2,-5 1.9,0 3.2,0.4 4.2,0.8 l -0.8,3 c -0.7,-0.3 -1.8,-0.8 -3.4,-0.8 -1.6,0 -2.4,0.7 -2.4,1.6 0,1.1 0.9,1.5 3.1,2.3 2.9,1.1 4.3,2.6 4.3,4.9 0,2.8 -2.1,5.1 -6.6,5.1 -1.9,0 -3.7,-0.5 -4.7,-1 z"
                     id="path130" />
               </g>
               <g id="g132">
                  <path fill="#153359"
                     d="m 157.3,697.8 -3.9,-16.5 h 4 l 1.2,6.8 c 0.4,2 0.7,4.1 1,5.7 v 0 c 0.3,-1.8 0.7,-3.8 1.1,-5.8 l 1.4,-6.7 h 4 l 1.3,6.9 c 0.4,1.9 0.6,3.7 0.9,5.5 v 0 c 0.2,-1.8 0.6,-3.8 1,-5.7 l 1.3,-6.7 h 3.8 l -4.3,16.5 h -4 l -1.4,-7.1 c -0.3,-1.7 -0.6,-3.2 -0.8,-5.1 v 0 c -0.3,1.9 -0.6,3.4 -1,5.1 l -1.6,7.1 z"
                     id="path131" />
               </g>
               <g id="g133">
                  <path fill="#153359"
                     d="m 419.6,690.8 h -6.1 v 3.9 h 6.8 v 3.1 H 409.8 V 681.3 H 420 v 3.1 h -6.4 v 3.4 h 6.1 v 3 z"
                     id="path132" />
               </g>
            </g>
         </g>
      </g>
      <g id="compass-6" transform="translate(-135.19998,-936.99997)" style="display:none">
         <circle fill="#153359" cx="291.29999" cy="1093.1" r="156.10001" id="circle135" />
         <circle fill="#ffffff" cx="291.29999" cy="1093.1" r="80.400002" id="circle136" />
         <g id="g140">
            <g id="g136">
               <path fill="#ffffff"
                  d="m 282.1,982.5 v -22.4 h 5.9 l 4.6,8.2 c 1.3,2.4 2.7,5.1 3.7,7.7 h 0.1 c -0.3,-3 -0.4,-6 -0.4,-9.3 v -6.5 h 4.6 v 22.4 h -5.3 l -4.8,-8.6 c -1.3,-2.4 -2.8,-5.3 -3.9,-7.9 h -0.1 c 0.1,3 0.2,6.1 0.2,9.8 v 6.7 h -4.6 z"
                  id="path136" />
            </g>
            <g id="g137">
               <path fill="#ffffff"
                  d="m 284.7,1220.6 c 1.4,0.7 3.5,1.4 5.6,1.4 2.3,0 3.6,-1 3.6,-2.4 0,-1.4 -1.1,-2.2 -3.8,-3.2 -3.7,-1.3 -6.1,-3.4 -6.1,-6.6 0,-3.8 3.2,-6.7 8.5,-6.7 2.5,0 4.4,0.5 5.7,1.1 l -1.1,4.1 c -0.9,-0.4 -2.5,-1.1 -4.7,-1.1 -2.2,0 -3.3,1 -3.3,2.2 0,1.4 1.3,2.1 4.1,3.2 4,1.5 5.8,3.5 5.8,6.7 0,3.8 -2.9,6.9 -9,6.9 -2.6,0 -5.1,-0.7 -6.3,-1.4 z"
                  id="path137" />
            </g>
            <g id="g138">
               <path fill="#ffffff"
                  d="m 157.2,1102.2 -5.3,-22.4 h 5.4 l 1.7,9.2 c 0.5,2.7 1,5.5 1.3,7.8 h 0.1 c 0.4,-2.4 0.9,-5.1 1.5,-7.9 l 1.9,-9.2 h 5.4 l 1.8,9.4 c 0.5,2.6 0.9,5 1.2,7.5 h 0.1 c 0.3,-2.5 0.8,-5.1 1.3,-7.8 l 1.8,-9.2 h 5.1 l -5.8,22.4 h -5.5 l -1.9,-9.6 c -0.4,-2.3 -0.8,-4.3 -1.1,-6.9 h -0.1 c -0.4,2.5 -0.8,4.6 -1.3,6.9 l -2.1,9.6 h -5.5 z"
                  id="path138" />
            </g>
            <g id="g139">
               <path fill="#ffffff"
                  d="m 416.8,1092.7 h -8.2 v 5.3 h 9.2 v 4.1 h -14.3 v -22.4 h 13.8 v 4.1 h -8.7 v 4.6 h 8.2 z"
                  id="path139" />
            </g>
         </g>
         <g id="g149">
            <g id="g148">
               <g id="g141">
                  <polygon fill="#ffffff" points="300.2,1014.9 292.8,999.2 285.4,1014.9 " id="polygon140" />
               </g>
               <g id="g142">
                  <polygon fill="#ffffff" points="285.4,1170.8 292.8,1186.5 300.2,1170.8 " id="polygon141" />
               </g>
               <g id="g143">
                  <polygon fill="#ffffff" points="370.7,1100.3 386.4,1092.9 370.7,1085.4 " id="polygon142" />
               </g>
               <g id="g144">
                  <polygon fill="#ffffff" points="214.8,1085.4 199.1,1092.9 214.8,1100.3 " id="polygon143" />
               </g>
               <g id="g147">
                  <g id="g146">
                     <g id="g145">
                        <path fill="#3cc2d9"
                           d="m 291.4,1020.2 c -40.2,0 -72.9,32.6 -72.9,72.9 0,40.3 32.6,72.9 72.9,72.9 40.2,0 72.9,-32.6 72.9,-72.9 0,-40.3 -32.6,-72.9 -72.9,-72.9 z m 0,135.9 c -34.8,0 -63,-28.2 -63,-63 0,-34.8 28.2,-63 63,-63 34.8,0 63,28.2 63,63 0.1,34.8 -28.2,63 -63,63 z"
                           id="path144" />
                     </g>
                  </g>
               </g>
            </g>
         </g>
         <g id="g152">
            <path fill="#ffc50b"
               d="m 274.3,969.9 c -55.1,6.4 -99.1,48.9 -107.9,103.2 h 8.1 c 8.6,-49.9 49.1,-88.9 99.8,-95.2 z"
               id="path149" />
            <path fill="#ffc50b"
               d="m 305.3,970.1 v 8 c 49.7,7.1 89.3,45.7 97.8,95 h 8.1 c -8.6,-53.6 -51.7,-95.7 -105.9,-103 z"
               id="path150" />
            <path fill="#ffc50b"
               d="m 274.3,1208.2 c -52.1,-6.5 -93.5,-47.6 -100.5,-99.6 h -8 c 7.1,56.4 52,101 108.5,107.6 z"
               id="path151" />
            <path fill="#ffc50b"
               d="m 403.8,1108.6 c -6.9,51.3 -47.3,92.1 -98.5,99.4 v 8 c 55.6,-7.4 99.5,-51.6 106.5,-107.4 z"
               id="path152" />
         </g>
         <polygon fill="#dc1f27" points="297.1,1136.1 322.3,1054.6 240.8,1079.8 279.6,1097 " id="polygon152"
            transform="rotate(-45,295.66544,1087.4082)" />
         <g id="g155">
            <g id="g154">
               <g id="g153">
                  <path fill="#dc1f27"
                     d="m 286.5,1195.5 c -1.7,-0.1 -3.4,-0.2 -5.1,-0.4 l 0.3,-2.6 c 1.6,0.2 3.3,0.3 4.9,0.3 z m 9.8,-2.6 c 1.6,-0.1 3.3,-0.2 4.9,-0.4 l 0.3,2.6 c -1.7,0.2 -3.4,0.3 -5.1,0.4 z m -24.7,0.8 c -1.7,-0.3 -3.3,-0.7 -5,-1.1 l 0.6,-2.5 c 1.6,0.4 3.2,0.7 4.8,1.1 z m 39.1,-2.6 c 1.6,-0.3 3.2,-0.7 4.8,-1.1 l 0.7,2.5 c -1.6,0.4 -3.3,0.8 -5,1.1 z m -53.5,-1.3 c -1.6,-0.6 -3.2,-1.2 -4.8,-1.8 l 1,-2.4 c 1.5,0.6 3.1,1.2 4.6,1.8 z m 67.6,-2.5 c 1.5,-0.5 3.1,-1.1 4.6,-1.8 l 1,2.4 c -1.6,0.6 -3.2,1.3 -4.8,1.8 z m -81.3,-3.5 c -1.5,-0.8 -3,-1.6 -4.4,-2.5 l 1.3,-2.2 c 1.4,0.8 2.8,1.6 4.3,2.4 z m 94.6,-2.4 c 1.4,-0.8 2.9,-1.6 4.3,-2.4 l 1.4,2.2 c -1.5,0.9 -2.9,1.7 -4.4,2.5 z m -107.3,-5.6 c -1.4,-1 -2.7,-2 -4,-3.1 l 1.7,-2 c 1.3,1 2.6,2 3.9,3 z m 119.7,-2.2 c 1.3,-1 2.6,-2 3.9,-3 l 1.7,2 c -1.3,1.1 -2.7,2.1 -4,3.1 z m -131.1,-7.5 c -1.2,-1.2 -2.4,-2.4 -3.5,-3.7 l 1.9,-1.7 c 1.1,1.2 2.2,2.4 3.4,3.5 z m 142.2,-1.9 c 1.2,-1.1 2.3,-2.3 3.4,-3.5 l 1.9,1.7 c -1.1,1.2 -2.3,2.5 -3.5,3.7 z m -152.1,-9.3 c -1,-1.4 -2,-2.7 -3,-4.1 l 2.2,-1.4 c 0.9,1.3 1.9,2.7 2.9,4 z m 161.7,-1.7 c 1,-1.3 1.9,-2.6 2.9,-4 l 2.2,1.4 c -1,1.4 -1.9,2.8 -3,4.1 z m -169.8,-10.8 c -0.8,-1.5 -1.6,-3 -2.3,-4.5 l 2.3,-1.1 c 0.7,1.5 1.5,2.9 2.3,4.4 z m 177.7,-1.5 c 0.8,-1.4 1.5,-2.9 2.2,-4.4 l 2.3,1.1 c -0.7,1.5 -1.5,3 -2.3,4.5 z m -183.9,-12.1 c -0.6,-1.6 -1.1,-3.2 -1.7,-4.8 l 2.5,-0.8 c 0.5,1.6 1,3.1 1.6,4.6 z m 189.9,-1.2 c 0.6,-1.5 1.1,-3.1 1.6,-4.7 l 2.5,0.7 c -0.5,1.6 -1.1,3.2 -1.7,4.8 z M 191,1114.4 c -0.4,-1.7 -0.7,-3.4 -0.9,-5 l 2.6,-0.4 c 0.3,1.6 0.6,3.2 0.9,4.8 z m 198.1,-0.8 c 0.3,-1.6 0.6,-3.2 0.9,-4.8 l 2.6,0.4 c -0.3,1.7 -0.6,3.4 -0.9,5 z m -200.1,-14 c -0.1,-1.7 -0.2,-3.4 -0.2,-5.1 h 2.6 c 0,1.6 0.1,3.3 0.2,4.9 z m 202.1,-0.4 c 0.1,-1.8 0.2,-3.6 0.2,-5.3 h 2.6 c 0,1.8 -0.1,3.7 -0.2,5.5 z m -202,-14.6 c 0.1,-1.7 0.3,-3.4 0.5,-5.1 l 2.6,0.4 c -0.2,1.6 -0.4,3.2 -0.5,4.9 z m 201.8,-0.4 c -0.1,-1.7 -0.3,-3.3 -0.6,-4.9 l 2.6,-0.4 c 0.2,1.7 0.4,3.4 0.6,5.1 z m -199.5,-14.4 c 0.4,-1.7 0.8,-3.3 1.3,-4.9 l 2.5,0.7 c -0.5,1.6 -0.9,3.2 -1.2,4.8 z m 197.1,0 c -0.4,-1.6 -0.8,-3.2 -1.3,-4.7 l 2.5,-0.8 c 0.5,1.6 0.9,3.3 1.3,4.9 z m -192.6,-14.2 c 0.6,-1.6 1.3,-3.2 2,-4.7 l 2.3,1.1 c -0.7,1.5 -1.3,3 -1.9,4.5 z m 188.2,0.3 c -0.6,-1.5 -1.3,-3 -1.9,-4.5 l 2.3,-1.1 c 0.7,1.6 1.4,3.1 2,4.7 z m -181.7,-13.8 c 0.8,-1.5 1.7,-2.9 2.7,-4.4 l 2.2,1.4 c -0.9,1.4 -1.7,2.8 -2.5,4.2 z m 175.3,0.7 c -0.8,-1.4 -1.7,-2.8 -2.6,-4.2 l 2.2,-1.4 c 0.9,1.4 1.8,2.9 2.7,4.3 z m -166.9,-13.1 c 1,-1.3 2.1,-2.6 3.2,-3.9 l 1.9,1.7 c -1.1,1.2 -2.1,2.5 -3.1,3.8 z m 158.7,1.1 c -1,-1.3 -2.1,-2.5 -3.2,-3.8 l 1.9,-1.7 c 1.1,1.3 2.2,2.6 3.3,3.9 z m -148.7,-12.2 c 1.2,-1.2 2.5,-2.3 3.8,-3.4 l 1.7,2 c -1.3,1.1 -2.5,2.2 -3.6,3.3 z m 138.8,1.5 c -1.2,-1.1 -2.4,-2.2 -3.7,-3.3 l 1.7,-2 c 1.3,1.1 2.6,2.2 3.8,3.4 z m -127.2,-11 c 1.4,-1 2.8,-1.9 4.2,-2.8 l 1.4,2.2 c -1.4,0.9 -2.8,1.8 -4.1,2.7 z m 115.8,1.8 c -1.3,-0.9 -2.7,-1.8 -4.1,-2.7 l 1.3,-2.2 c 1.4,0.9 2.9,1.8 4.3,2.8 z m -102.9,-9.4 c 1.5,-0.7 3,-1.5 4.6,-2.2 l 1,2.4 c -1.5,0.7 -3,1.4 -4.4,2.1 z m 90.4,2 c -1.5,-0.7 -3,-1.4 -4.5,-2.1 l 1,-2.4 c 1.6,0.7 3.1,1.4 4.6,2.2 z m -76.6,-7.8 c 1.6,-0.5 3.2,-1 4.9,-1.5 l 0.7,2.5 c -1.6,0.4 -3.2,0.9 -4.7,1.4 z m 63,2.3 c -1.6,-0.5 -3.1,-1 -4.7,-1.4 l 0.6,-2.5 c 1.6,0.4 3.3,0.9 4.9,1.5 z m -48.5,-5.9 c 1.7,-0.3 3.4,-0.5 5,-0.8 l 0.3,2.6 c -1.6,0.2 -3.3,0.4 -4.9,0.7 z m 34.4,2.4 c -1.6,-0.3 -3.2,-0.5 -4.9,-0.7 l 0.3,-2.6 c 1.7,0.2 3.4,0.4 5,0.7 z m -19.6,-3.9 c 0.9,0 1.9,0 2.8,0 0.8,0 1.5,0 2.3,0 l -0.1,2.6 c -0.7,0 -1.4,0 -2.2,0 -0.9,0 -1.8,0 -2.7,0 z"
                     id="path153" />
               </g>
            </g>
         </g>
      </g>
      <g id="compass-7" transform="translate(-939.99997,-138.29999)" style="display:none">
         <circle fill="#6d8082" cx="1096.1" cy="294.39999" r="156.10001" id="circle155" />
         <circle fill="#153359" cx="1097" cy="294.39999" r="116.5" id="circle156" />
         <circle fill="#ffc50b" cx="1097" cy="294.39999" r="97.400002" id="circle157" style="display:inline" />
         <ellipse fill="#f7930f" cx="1096.8" cy="294.10001" rx="49.299999" ry="49.5" id="ellipse157"
            style="display:inline" />
         <g id="g170">
            <g id="g169">
               <g id="g159">
                  <g id="g158">
                     <g id="g157">
                        <path fill="#153359"
                           d="m 1090.1,167.9 v -17.5 h 4.6 l 3.6,6.4 c 1,1.8 2.1,4 2.9,6 h 0.1 c -0.3,-2.3 -0.3,-4.7 -0.3,-7.3 v -5.1 h 3.6 v 17.5 h -4.1 l -3.7,-6.7 c -1,-1.9 -2.2,-4.1 -3,-6.2 h -0.1 c 0.1,2.3 0.2,4.8 0.2,7.6 v 5.3 z"
                           id="path157" />
                     </g>
                  </g>
               </g>
               <g id="g162">
                  <g id="g161">
                     <g id="g160">
                        <path fill="#153359"
                           d="m 1092.2,436.1 c 1.1,0.5 2.7,1.1 4.4,1.1 1.8,0 2.8,-0.8 2.8,-1.9 0,-1.1 -0.8,-1.7 -2.9,-2.5 -2.9,-1 -4.8,-2.6 -4.8,-5.2 0,-3 2.5,-5.3 6.6,-5.3 2,0 3.4,0.4 4.5,0.9 l -0.9,3.2 c -0.7,-0.3 -1.9,-0.8 -3.7,-0.8 -1.7,0 -2.5,0.8 -2.5,1.7 0,1.1 1,1.6 3.2,2.5 3.1,1.1 4.5,2.8 4.5,5.2 0,2.9 -2.3,5.4 -7.1,5.4 -2,0 -4,-0.5 -5,-1.1 z"
                           id="path159" />
                     </g>
                  </g>
               </g>
               <g id="g165">
                  <g id="g164">
                     <g id="g163">
                        <path fill="#153359"
                           d="M 956.2,303.8 952,286.3 h 4.2 l 1.3,7.2 c 0.4,2.1 0.8,4.3 1,6.1 h 0.1 c 0.3,-1.9 0.7,-4 1.1,-6.1 l 1.5,-7.2 h 4.2 l 1.4,7.4 c 0.4,2 0.7,3.9 0.9,5.9 h 0.1 c 0.3,-1.9 0.6,-4 1,-6.1 l 1.4,-7.2 h 4 l -4.5,17.5 h -4.3 l -1.5,-7.5 c -0.3,-1.8 -0.6,-3.4 -0.8,-5.4 H 963 c -0.3,2 -0.6,3.6 -1,5.4 l -1.7,7.5 z"
                           id="path162" />
                     </g>
                  </g>
               </g>
               <g id="g168">
                  <g id="g167">
                     <g id="g166">
                        <path fill="#153359"
                           d="m 1234.7,296.4 h -6.4 v 4.2 h 7.2 v 3.2 h -11.2 v -17.5 h 10.8 v 3.2 h -6.8 v 3.6 h 6.4 z"
                           id="path165" />
                     </g>
                  </g>
               </g>
            </g>
         </g>
         <g id="g203">
            <g id="g202">
               <g id="g171">
                  <rect x="1093.4" y="194.5" fill="#eceff0" width="4.3000002" height="14" id="rect170" />
               </g>
               <g id="g174">
                  <g id="g173">
                     <g id="g172">
                        <rect x="1092.4" y="194.5" fill="#153359" width="6.5" height="14" id="rect171" />
                     </g>
                  </g>
               </g>
               <g id="g177">
                  <g id="g176">
                     <g id="g175">
                        <rect x="1092.4" y="379.89999" fill="#153359" width="6.5" height="14" id="rect174" />
                     </g>
                  </g>
               </g>
               <g id="g185">
                  <g id="g178">
                     <rect x="1181.3" y="292" fill="#eceff0" width="14" height="4.3000002" id="rect177" />
                  </g>
                  <g id="g181">
                     <g id="g180">
                        <g id="g179">
                           <rect x="1181.3" y="291" fill="#153359" width="14" height="6.5" id="rect178" />
                        </g>
                     </g>
                  </g>
                  <g id="g184">
                     <g id="g183">
                        <g id="g182">
                           <rect x="995.90002" y="291" fill="#153359" width="14" height="6.5" id="rect181" />
                        </g>
                     </g>
                  </g>
               </g>
               <g id="g201">
                  <g id="g186">
                     <rect x="1159" y="221.60001" transform="matrix(0.7071,0.7071,-0.7071,0.7071,501.7633,-754.0935)"
                        fill="#eceff0" width="4.3000002" height="14" id="rect185" />
                  </g>
                  <g id="g189">
                     <g id="g188">
                        <g id="g187">
                           <rect x="1157.9" y="221.60001"
                              transform="matrix(0.7071,0.7071,-0.7071,0.7071,501.7633,-754.0935)" fill="#153359"
                              width="6.5" height="14" id="rect186" />
                        </g>
                     </g>
                  </g>
                  <g id="g192">
                     <g id="g191">
                        <g id="g190">
                           <rect x="1026.8" y="352.70001"
                              transform="matrix(0.7071,0.7071,-0.7071,0.7071,556.0656,-622.9964)" fill="#153359"
                              width="6.5" height="14" id="rect189" />
                        </g>
                     </g>
                  </g>
                  <g id="g200">
                     <g id="g193">
                        <rect x="1154.1" y="357.60001"
                           transform="matrix(0.7071,0.7071,-0.7071,0.7071,594.4058,-715.6659)" fill="#eceff0" width="14"
                           height="4.3000002" id="rect192" />
                     </g>
                     <g id="g196">
                        <g id="g195">
                           <g id="g194">
                              <rect x="1154.1" y="356.5"
                                 transform="matrix(0.7071,0.7071,-0.7071,0.7071,594.4058,-715.6659)" fill="#153359"
                                 width="14" height="6.5" id="rect193" />
                           </g>
                        </g>
                     </g>
                     <g id="g199">
                        <g id="g198">
                           <g id="g197">
                              <rect x="1023" y="225.39999"
                                 transform="matrix(0.7071,0.7071,-0.7071,0.7071,463.4131,-661.424)" fill="#153359"
                                 width="14" height="6.5" id="rect196" />
                           </g>
                        </g>
                     </g>
                  </g>
               </g>
            </g>
         </g>
         <g id="g214" style="display:inline">
            <g id="g213" style="display:inline" transform="rotate(135,1097.05,294.1)">
               <g id="g212" style="display:inline">
                  <polygon fill="#dc1f27" points="1041.6,350.1 1086.7,284.1 1106.3,302.8 " id="polygon211" />
                  <polygon fill="#153359" points="1152.5,238.1 1106.3,302.9 1086.6,284.2 " id="polygon212" />
               </g>
               <circle fill="#3cc2d9" cx="1095.9" cy="293.39999" r="10.2" id="circle212" />
            </g>
         </g>
         <path fill="#eceff0"
            d="m 1097,189.4 c -57.9,0 -104.9,47 -104.9,104.9 0,57.9 47,104.9 104.9,104.9 57.9,0 104.9,-47 104.9,-104.9 0,-57.9 -46.9,-104.9 -104.9,-104.9 z m 0,202.3 c -53.8,0 -97.4,-43.6 -97.4,-97.4 0,-53.8 43.6,-97.4 97.4,-97.4 53.8,0 97.4,43.6 97.4,97.4 0,53.8 -43.6,97.4 -97.4,97.4 z"
            id="path214" />
      </g>
      <g id="compass-8" style="display:none" transform="translate(-939.99997,-936.99997)">
         <circle fill="#dc1f27" cx="1096.1" cy="1093.1" r="156.10001" id="circle214" />
         <circle fill="#3cc2d9" cx="1096.1" cy="1093.1" r="103.5" id="circle215" />
         <g id="g241">
            <path fill="#153359" d="m 1105.9,979.7 c -6.5,-0.5 -13,-0.5 -19.5,0 l 9.7,16.3 z" id="path215" />
            <path fill="#153359" d="m 1086.5,1206.1 c 6.4,0.5 12.8,0.5 19.1,0 l -9.6,-16 z" id="path216" />
            <path fill="#153359" d="m 1209.5,1083.3 -16.4,9.8 16.3,9.7 c 0.6,-6.5 0.6,-13 0.1,-19.5 z" id="path217" />
            <path fill="#153359" d="m 983.1,1083.5 c -0.5,6.4 -0.5,12.8 0,19.1 l 16,-9.5 z" id="path218" />
            <path fill="#153359"
               d="m 1183.2,1019.8 c -2.1,-2.5 -4.3,-4.9 -6.6,-7.2 -2.3,-2.3 -4.8,-4.5 -7.2,-6.6 l -4.7,18.5 z"
               id="path219" />
            <path fill="#153359" d="m 1009.5,1166.2 c 2,2.4 4.2,4.8 6.4,7 2.3,2.3 4.6,4.4 7,6.4 l 4.5,-18 z"
               id="path220" />
            <path fill="#153359" d="m 1169.3,1179.9 c 2.5,-2.1 5,-4.3 7.3,-6.7 2.2,-2.2 4.3,-4.6 6.4,-7 l -18.3,-4.6 z"
               id="path221" />
            <path fill="#153359" d="m 1022.9,1006.2 c -2.4,2 -4.7,4.1 -7,6.4 -2.4,2.4 -4.6,4.8 -6.7,7.3 l 18.2,4.6 z"
               id="path222" />
            <g id="g240">
               <g id="g239">
                  <g id="g223">
                     <path fill="#eceff0"
                        d="m 1169.4,1006 1.7,-6.8 c -18.2,-14.6 -39.6,-23 -61.6,-25.5 l -3.6,6 c 22.7,1.9 45,10.7 63.5,26.3 z"
                        id="path223" />
                  </g>
                  <g id="g224">
                     <path fill="#eceff0"
                        d="m 1023,1179.7 -1.7,6.8 c 18.2,14.6 39.7,23.2 61.7,25.6 l 3.6,-6 c -22.9,-1.9 -45.2,-10.8 -63.6,-26.4 z"
                        id="path224" />
                  </g>
                  <g id="g225">
                     <path fill="#eceff0"
                        d="m 1086.3,979.7 -3.6,-6 c -22,2.5 -43.4,11 -61.6,25.6 l 1.7,6.8 c 18.5,-15.5 40.8,-24.4 63.5,-26.4 z"
                        id="path225" />
                  </g>
                  <g id="g226">
                     <path fill="#eceff0"
                        d="m 1209.4,1102.8 c -2,22.8 -10.8,45 -26.5,63.5 l 6.8,1.7 c 14.6,-18.2 23.2,-39.6 25.6,-61.6 z"
                        id="path226" />
                  </g>
                  <g id="g227">
                     <path fill="#eceff0"
                        d="m 1009.3,1019.9 -6.8,-1.7 c -14.6,18.2 -23,39.7 -25.4,61.8 l 6,3.6 c 1.8,-22.9 10.6,-45.2 26.2,-63.7 z"
                        id="path227" />
                  </g>
                  <g id="g228">
                     <path fill="#eceff0"
                        d="m 1209.5,1083.3 6,-3.6 c -2.4,-22 -10.9,-43.4 -25.5,-61.6 l -6.8,1.7 c 15.6,18.5 24.3,40.8 26.3,63.5 z"
                        id="path228" />
                  </g>
                  <g id="g229">
                     <path fill="#eceff0"
                        d="m 1105.7,1206.1 3.6,6 c 22,-2.4 43.5,-10.9 61.8,-25.4 l -1.7,-6.8 c -18.6,15.6 -41,24.3 -63.7,26.2 z"
                        id="path229" />
                  </g>
                  <g id="g230">
                     <path fill="#eceff0"
                        d="m 983.1,1102.6 -6,3.6 c 2.4,22 11,43.5 25.6,61.7 l 6.8,-1.7 c -15.7,-18.5 -24.5,-40.8 -26.4,-63.6 z"
                        id="path230" />
                  </g>
                  <g id="g231">
                     <path fill="#eceff0"
                        d="m 1105.9,979.7 3.6,-6 c -8.9,-1 -17.8,-1 -26.7,0 l 3.6,6 c 6.4,-0.5 13,-0.5 19.5,0 z"
                        id="path231" />
                  </g>
                  <g id="g232">
                     <path fill="#eceff0"
                        d="m 1086.5,1206.1 -3.6,6 c 8.7,1 17.6,1 26.3,0 l -3.6,-6 c -6.3,0.5 -12.7,0.5 -19.1,0 z"
                        id="path232" />
                  </g>
                  <g id="g233">
                     <path fill="#eceff0"
                        d="m 1209.4,1102.8 6,3.6 c 1,-8.9 1,-17.8 0,-26.7 l -6,3.6 c 0.6,6.5 0.6,13 0,19.5 z"
                        id="path233" />
                  </g>
                  <g id="g234">
                     <path fill="#eceff0"
                        d="m 983.1,1083.5 -6,-3.6 c -0.9,8.7 -0.9,17.6 0,26.3 l 6,-3.6 c -0.6,-6.3 -0.6,-12.7 0,-19.1 z"
                        id="path234" />
                  </g>
                  <g id="g235">
                     <path fill="#eceff0"
                        d="m 1176.6,1012.6 c 2.3,2.3 4.5,4.8 6.6,7.2 l 6.8,-1.7 c -2.8,-3.5 -5.7,-6.8 -8.9,-10 -3.2,-3.2 -6.6,-6.2 -10,-8.9 l -1.7,6.8 c 2.4,2.1 4.9,4.2 7.2,6.6 z"
                        id="path235" />
                  </g>
                  <g id="g236">
                     <path fill="#eceff0"
                        d="m 1015.9,1173.3 c -2.3,-2.3 -4.4,-4.6 -6.4,-7 l -6.8,1.7 c 2.7,3.4 5.6,6.7 8.8,9.8 3.1,3.1 6.4,6 9.8,8.8 l 1.7,-6.8 c -2.5,-2.2 -4.8,-4.3 -7.1,-6.5 z"
                        id="path236" />
                  </g>
                  <g id="g237">
                     <path fill="#eceff0"
                        d="m 1176.6,1173.3 c -2.4,2.4 -4.8,4.6 -7.3,6.7 l 1.7,6.8 c 3.5,-2.8 6.9,-5.8 10.1,-9 3.1,-3.1 6,-6.4 8.7,-9.7 l -6.8,-1.7 c -2,2.3 -4.1,4.6 -6.4,6.9 z"
                        id="path237" />
                  </g>
                  <g id="g238">
                     <path fill="#eceff0"
                        d="m 1015.9,1012.6 c 2.2,-2.2 4.6,-4.3 7,-6.4 l -1.7,-6.8 c -3.4,2.7 -6.6,5.6 -9.7,8.7 -3.2,3.2 -6.2,6.6 -9,10.1 l 6.8,1.7 c 2.1,-2.5 4.3,-5 6.6,-7.3 z"
                        id="path238" />
                  </g>
               </g>
            </g>
         </g>
         <g id="g250">
            <g id="g248" style="display:inline">
               <g id="g247" style="display:inline">
                  <g id="g246">
                     <g id="g242">
                        <polygon fill="#153359" points="1096.1,1081 1102.2,1087 1140.3,1048.9 " id="polygon241" />
                     </g>
                     <g id="g243">
                        <polygon fill="#153359" points="1083.6,1093.5 1051.9,1137.3 1089.6,1099.6 " id="polygon242" />
                     </g>
                     <g id="g244">
                        <polygon fill="#153359" points="1108.2,1093.1 1102.1,1087 1140.3,1048.8 " id="polygon243" />
                     </g>
                     <g id="g245">
                        <polygon fill="#153359" points="1095.7,1105.6 1051.9,1137.3 1089.6,1099.6 " id="polygon244" />
                     </g>
                  </g>
                  <g id="g275" transform="rotate(-90,1096.1,1093.05)">
                     <g id="g271">
                        <polygon fill="#153359" points="1102.2,1087 1140.3,1048.9 1096.1,1081 " id="polygon270" />
                     </g>
                     <g id="g272">
                        <polygon fill="#153359" points="1051.9,1137.3 1089.6,1099.6 1083.6,1093.5 " id="polygon271" />
                     </g>
                     <g id="g273">
                        <polygon fill="#153359" points="1102.1,1087 1140.3,1048.8 1108.2,1093.1 " id="polygon272" />
                     </g>
                     <g id="g274">
                        <polygon fill="#153359" points="1051.9,1137.3 1089.6,1099.6 1095.7,1105.6 " id="polygon273" />
                     </g>
                  </g>
               </g>
            </g>
            <polygon fill="#eceff0"
               points="1096.1,1163.3 1096.1,1163.3 1096.1,1163.3 1096.1,1163.2 1108.1,1104.8 1166.2,1093.1 1166.3,1093.1 1166.2,1093.1 1107.9,1081.3 1096.1,1022.9 1096.1,1022.8 1096.1,1022.9 1096.1,1022.8 1096.1,1022.9 1084.4,1081.1 1026,1093.1 1025.9,1093.1 1026,1093.1 1084.2,1105 1096.1,1163.2 "
               id="polygon248" style="display:inline" />
            <g id="g249" style="display:inline" transform="rotate(45,1096.9195,1091.65)">
               <path fill="#ffc50b"
                  d="m 1044.9,1046.5 35,59.5 c 0.7,1.1 2.7,2.9 3.8,3.5 l 62.5,30.3 c 1.9,1 3.9,-1.2 2.7,-3 l -35.5,-59.1 c -0.7,-1.1 -2.7,-2.9 -3.8,-3.5 l -62,-30.7 c -1.9,-1 -3.8,1.2 -2.7,3 z"
                  id="path248" />
               <circle fill="#3cc2d9" cx="1097.2" cy="1091.9" r="15.8" id="circle248" />
            </g>
         </g>
         <g id="g252">
            <g id="g251">
               <path fill="#153359"
                  d="m 1096.2,1224.7 v -2.4 c 2.3,0 4.7,-0.1 7,-0.2 l 0.1,2.4 c -2.3,0.1 -4.7,0.2 -7.1,0.2 z m -7.1,-0.2 c -2.4,-0.1 -4.7,-0.3 -7.1,-0.6 l 0.3,-2.4 c 2.3,0.2 4.7,0.4 7,0.6 z m 21.4,-0.6 -0.3,-2.4 c 2.3,-0.2 4.6,-0.6 6.9,-0.9 l 0.4,2.4 c -2.3,0.3 -4.7,0.6 -7,0.9 z M 1075,1223 c -2.3,-0.4 -4.7,-0.8 -7,-1.3 l 0.5,-2.3 c 2.3,0.5 4.6,0.9 6.9,1.3 z m 49.5,-1.4 -0.5,-2.3 c 2.3,-0.5 4.5,-1.1 6.8,-1.7 l 0.6,2.3 c -2.3,0.6 -4.6,1.2 -6.9,1.7 z m -63.4,-1.7 c -2.3,-0.6 -4.6,-1.3 -6.8,-2.1 l 0.8,-2.3 c 2.2,0.7 4.5,1.4 6.7,2 z m 77.1,-2.1 -0.8,-2.3 c 2.2,-0.7 4.4,-1.6 6.6,-2.4 l 0.9,2.2 c -2.2,0.9 -4.4,1.7 -6.7,2.5 z m -90.7,-2.4 c -2.2,-0.9 -4.4,-1.8 -6.6,-2.8 l 1,-2.2 c 2.1,1 4.3,1.9 6.4,2.8 z m 103.9,-2.9 -1,-2.2 c 2.1,-1 4.2,-2 6.3,-3.1 l 1.1,2.1 c -2.1,1.1 -4.2,2.2 -6.4,3.2 z m -116.8,-3.1 c -2.1,-1.1 -4.2,-2.3 -6.2,-3.5 l 1.2,-2 c 2,1.2 4.1,2.4 6.1,3.4 z m 129.4,-3.6 -1.2,-2 c 2,-1.2 4,-2.5 5.9,-3.8 l 1.3,2 c -2,1.3 -4,2.6 -6,3.8 z m -141.6,-3.7 c -1.9,-1.3 -3.9,-2.7 -5.8,-4.2 l 1.4,-1.9 c 1.9,1.4 3.8,2.8 5.7,4.1 z m 153.4,-4.3 -1.4,-1.9 c 1.9,-1.4 3.7,-2.9 5.4,-4.4 l 1.5,1.8 c -1.8,1.6 -3.6,3.1 -5.5,4.5 z m -164.8,-4.3 c -1.8,-1.5 -3.6,-3.1 -5.3,-4.8 l 1.6,-1.7 c 1.7,1.6 3.4,3.2 5.2,4.7 z m 175.6,-4.9 -1.6,-1.7 c 1.7,-1.6 3.4,-3.3 4.9,-4.9 l 1.7,1.6 c -1.6,1.7 -3.2,3.4 -5,5 z m -185.9,-4.9 c -1.6,-1.7 -3.2,-3.5 -4.8,-5.3 l 1.8,-1.5 c 1.5,1.8 3.1,3.5 4.7,5.2 z m 195.7,-5.4 -1.8,-1.5 c 1.5,-1.8 3,-3.6 4.4,-5.5 l 1.9,1.4 c -1.4,1.9 -2.9,3.7 -4.5,5.6 z m -205,-5.5 c -1.4,-1.9 -2.8,-3.8 -4.2,-5.8 l 2,-1.3 c 1.3,1.9 2.7,3.8 4.1,5.7 z m 213.6,-5.9 -2,-1.3 c 1.3,-1.9 2.6,-3.9 3.8,-5.9 l 2,1.2 c -1.1,2 -2.4,4.1 -3.8,6 z m -221.6,-5.8 c -1.2,-2 -2.4,-4.1 -3.5,-6.2 l 2.1,-1.1 c 1.1,2 2.3,4.1 3.5,6.1 z m 229,-6.4 -2.1,-1.1 c 1.1,-2.1 2.1,-4.2 3.1,-6.3 l 2.2,1 c -1,2.2 -2.1,4.3 -3.2,6.4 z m -235.7,-6.2 c -1,-2.1 -1.9,-4.3 -2.8,-6.5 l 2.2,-0.9 c 0.9,2.1 1.8,4.3 2.8,6.4 z m 241.7,-6.7 -2.2,-0.9 c 0.9,-2.2 1.7,-4.4 2.4,-6.6 l 2.3,0.8 c -0.8,2.2 -1.6,4.5 -2.5,6.7 z m -247,-6.5 c -0.8,-2.2 -1.5,-4.5 -2.1,-6.8 l 2.3,-0.6 c 0.6,2.2 1.3,4.5 2.1,6.7 z m 251.5,-7 -2.3,-0.6 c 0.6,-2.2 1.2,-4.5 1.7,-6.8 l 2.3,0.5 c -0.4,2.3 -1,4.6 -1.7,6.9 z m -255.3,-6.7 c -0.5,-2.3 -1,-4.7 -1.3,-7 l 2.4,-0.4 c 0.4,2.3 0.8,4.6 1.3,6.9 z m 258.4,-7.3 -2.4,-0.4 c 0.4,-2.3 0.7,-4.6 0.9,-6.9 l 2.4,0.3 c -0.2,2.3 -0.5,4.7 -0.9,7 z m -260.7,-6.7 c -0.3,-2.3 -0.5,-4.7 -0.6,-7.1 l 2.4,-0.1 c 0.1,2.3 0.3,4.7 0.6,7 z m 262.2,-7.4 -2.4,-0.1 c 0.1,-2.3 0.2,-4.7 0.2,-7 v -0.5 h 2.4 v 0.5 c 0,2.3 -0.1,4.7 -0.2,7.1 z m -260.6,-6.9 h -2.4 v -0.2 c 0,-2.3 0.1,-4.6 0.2,-6.9 l 2.4,0.1 c -0.1,2.2 -0.2,4.5 -0.2,6.7 z m 258.2,-7.7 c -0.1,-2.3 -0.3,-4.7 -0.6,-7 l 2.4,-0.3 c 0.3,2.3 0.5,4.7 0.6,7.1 z m -257.5,-6.2 -2.4,-0.2 c 0.2,-2.4 0.6,-4.7 0.9,-7.1 l 2.4,0.4 c -0.3,2.2 -0.6,4.6 -0.9,6.9 z m 256,-7.7 c -0.4,-2.3 -0.8,-4.6 -1.3,-6.9 l 2.3,-0.5 c 0.5,2.3 1,4.6 1.4,7 z m -253.8,-6.1 -2.3,-0.5 c 0.5,-2.3 1.1,-4.6 1.7,-6.9 l 2.3,0.6 c -0.6,2.2 -1.2,4.5 -1.7,6.8 z m 250.7,-7.6 c -0.6,-2.2 -1.3,-4.5 -2.1,-6.7 l 2.3,-0.8 c 0.8,2.2 1.5,4.5 2.1,6.8 z m -247,-5.9 -2.3,-0.8 c 0.8,-2.3 1.6,-4.5 2.4,-6.7 l 2.2,0.9 c -0.7,2.2 -1.5,4.4 -2.3,6.6 z m 242.5,-7.3 c -0.9,-2.1 -1.8,-4.3 -2.8,-6.4 l 2.2,-1 c 1,2.1 2,4.3 2.8,6.5 z m -237.3,-5.7 -2.2,-1 c 1,-2.2 2.1,-4.3 3.2,-6.4 l 2.1,1.1 c -1.1,2 -2.1,4.1 -3.1,6.3 z m 231.4,-7 c -1.1,-2 -2.3,-4.1 -3.5,-6.1 l 2,-1.2 c 1.2,2 2.4,4.1 3.5,6.2 z m -224.9,-5.4 -2,-1.2 c 1.2,-2 2.5,-4 3.8,-6 l 2,1.3 c -1.3,1.9 -2.6,3.9 -3.8,5.9 z m 217.6,-6.5 c -1.3,-1.9 -2.7,-3.8 -4.1,-5.7 l 1.9,-1.5 c 1.4,1.9 2.8,3.8 4.2,5.8 z m -209.7,-5.1 -1.9,-1.4 c 1.4,-1.9 2.9,-3.8 4.5,-5.6 l 1.8,1.5 c -1.5,1.8 -3,3.6 -4.4,5.5 z m 201.2,-6 c -1.5,-1.8 -3.1,-3.5 -4.7,-5.2 l 1.7,-1.6 c 1.6,1.7 3.2,3.5 4.8,5.3 z m -192.2,-4.7 -1.7,-1.6 c 1.6,-1.7 3.3,-3.4 5,-5 l 1.6,1.7 c -1.6,1.6 -3.3,3.2 -4.9,4.9 z m 182.6,-5.4 c -1.7,-1.6 -3.5,-3.2 -5.2,-4.7 l 1.5,-1.8 c 1.8,1.5 3.6,3.1 5.3,4.7 z m -172.4,-4.2 -1.6,-1.8 c 1.8,-1.5 3.7,-3 5.5,-4.5 l 1.5,1.9 c -1.9,1.4 -3.7,2.9 -5.4,4.4 z M 1174,990 c -1.9,-1.4 -3.8,-2.8 -5.7,-4.1 l 1.3,-2 c 2,1.3 3.9,2.7 5.8,4.1 z m -150.6,-3.7 -1.3,-2 c 1.9,-1.3 4,-2.6 6,-3.9 l 1.2,2 c -2.1,1.3 -4,2.6 -5.9,3.9 z m 139,-4.2 c -2,-1.2 -4,-2.3 -6.1,-3.4 l 1.1,-2.1 c 2.1,1.1 4.2,2.3 6.2,3.5 z m -127.1,-3.1 -1.1,-2.1 c 2.1,-1.1 4.2,-2.2 6.4,-3.2 l 1,2.2 c -2.2,1 -4.3,2.1 -6.3,3.1 z m 114.7,-3.4 c -2.1,-1 -4.3,-1.9 -6.4,-2.8 l 0.9,-2.2 c 2.2,0.9 4.4,1.8 6.6,2.8 z m -102.1,-2.5 -0.9,-2.2 c 2.2,-0.9 4.5,-1.7 6.7,-2.5 l 0.8,2.3 c -2.2,0.8 -4.4,1.6 -6.6,2.4 z m 89.1,-2.6 c -2.2,-0.7 -4.5,-1.4 -6.7,-2 l 0.6,-2.3 c 2.3,0.6 4.6,1.3 6.8,2.1 z m -75.8,-1.9 -0.6,-2.3 c 2.3,-0.6 4.6,-1.2 6.9,-1.7 l 0.5,2.3 c -2.3,0.5 -4.6,1.1 -6.8,1.7 z m 62.3,-1.8 c -2.3,-0.5 -4.6,-0.9 -6.9,-1.3 l 0.4,-2.4 c 2.3,0.4 4.7,0.8 7,1.3 z m -48.7,-1.2 -0.4,-2.4 c 2.3,-0.4 4.7,-0.7 7.1,-1 l 0.3,2.4 c -2.4,0.3 -4.7,0.6 -7,1 z m 34.9,-1 c -2.3,-0.2 -4.6,-0.4 -7,-0.5 l 0.1,-2.4 c 2.4,0.1 4.8,0.3 7.1,0.6 z m -21,-0.5 -0.1,-2.4 c 2.3,-0.1 4.7,-0.2 7.1,-0.2 v 2.4 c -2.3,0 -4.7,0 -7,0.2 z"
                  id="path250" style="display:inline" />
            </g>
         </g>
      </g>
      <g id="compass-9" style="display:none" transform="translate(-939.99997,-537.60001)">
         <circle fill="#153359" cx="1096.1" cy="693.70001" r="156.10001" id="circle252" style="display:inline" />
         <circle fill="#3cc2d9" cx="1097" cy="693.70001" r="117.5" id="circle253" style="display:inline" />
         <circle fill="#eceff0" cx="1097" cy="693.70001" r="84" id="circle254" style="display:inline" />
         <g id="g258">
            <polygon fill="#c4c6c6"
               points="1057.8,732.9 1057.7,733 1057.8,732.9 1057.7,733 1057.8,732.9 1087.5,711.4 1096.6,755.7 1096.6,755.8 1096.6,755.8 1096.6,755.8 1096.6,755.7 1105.7,711.4 1135.4,732.9 1135.4,733 1135.4,732.9 1135.5,733 1135.4,732.9 1113.8,703.1 1158.2,694.1 1158.3,694.1 1158.2,694.1 1113.8,685.1 1135.4,655.3 1135.5,655.2 1135.4,655.3 1135.4,655.2 1135.4,655.3 1105.6,676.9 1096.6,632.5 1096.6,632.4 1096.6,632.5 1087.6,676.9 1057.8,655.3 1057.7,655.2 1057.8,655.3 1057.7,655.2 1057.8,655.3 1079.2,685 1035,694.1 1034.9,694.1 1035,694.1 1079.3,703.2 "
               id="polygon254" style="display:inline" />
            <g id="g256" style="display:inline" transform="rotate(45,1097,694.1)">
               <polygon fill="#dc1f27" points="1106.5,684.3 1088.7,702.9 1043.8,641.5 " id="polygon255" />
               <polygon fill="#153359" points="1088.7,702.9 1106.4,684.2 1150.2,746.7 " id="polygon256" />
            </g>
         </g>
         <g id="g268" style="display:inline">
            <path fill="#eceff0"
               d="m 1092.6,798.6 c 0.8,0.4 2,0.8 3.3,0.8 1.4,0 2.1,-0.6 2.1,-1.4 0,-0.8 -0.6,-1.3 -2.2,-1.8 -2.2,-0.8 -3.6,-2 -3.6,-3.8 0,-2.2 1.9,-3.9 4.9,-3.9 1.5,0 2.6,0.3 3.3,0.7 l -0.7,2.4 c -0.5,-0.3 -1.4,-0.6 -2.7,-0.6 -1.3,0 -1.9,0.6 -1.9,1.3 0,0.8 0.7,1.2 2.4,1.8 2.3,0.8 3.4,2 3.4,3.9 0,2.2 -1.7,4 -5.3,4 -1.5,0 -3,-0.4 -3.7,-0.8 z"
               id="path263" style="display:inline" />
            <path fill="#eceff0"
               d="m 1091.1,599 v -13 h 3.4 l 2.7,4.8 c 0.8,1.4 1.5,3 2.1,4.5 h 0.1 c -0.2,-1.7 -0.3,-3.5 -0.3,-5.4 V 586 h 2.7 v 13 h -3.1 l -2.8,-5 c -0.8,-1.4 -1.6,-3.1 -2.3,-4.6 h -0.1 c 0.1,1.7 0.1,3.6 0.1,5.7 v 3.9 z"
               id="path262" style="display:inline" />
            <path fill="#eceff0"
               d="m 991.3,700.2 -3.1,-13 h 3.1 l 1,5.4 c 0.3,1.5 0.6,3.2 0.8,4.5 v 0 c 0.2,-1.4 0.5,-3 0.9,-4.6 l 1.1,-5.3 h 3.1 l 1,5.5 c 0.3,1.5 0.5,2.9 0.7,4.4 v 0 c 0.2,-1.4 0.5,-3 0.8,-4.5 l 1.1,-5.3 h 3 l -3.4,13 h -3.2 l -1.1,-5.6 c -0.3,-1.3 -0.5,-2.5 -0.6,-4 v 0 c -0.2,1.5 -0.4,2.7 -0.8,4 l -1.2,5.6 h -3.2 z"
               id="path264" style="display:inline" />
            <path fill="#eceff0" d="m 1198.7,694.7 h -4.8 v 3.1 h 5.4 v 2.4 h -8.3 v -13 h 8 v 2.4 h -5.1 v 2.7 h 4.8 z"
               id="path265" style="display:inline" />
         </g>
         <g id="g262" style="display:inline">
            <circle fill="#153359" cx="1166.1" cy="623.90002" r="4.5999999" id="circle258" />
            <circle fill="#153359" cx="1026.4" cy="763.59998" r="4.5999999" id="circle259" />
            <circle fill="#153359" cx="1166.1" cy="763.59998" r="4.5999999" id="circle260" style="display:inline" />
            <circle fill="#153359" cx="1026.4" cy="623.90002" r="4.5999999" id="circle261" style="display:inline" />
         </g>
      </g>
   </g>
</svg>